<svg xmlns="http://www.w3.org/2000/svg" viewBox="33.31 38.27 216.85 201.12"><defs><clipPath id="a"><path d="M0 0h283.465v283.465H0Z"/></clipPath></defs><g fill="#005088" clip-path="url(#a)"><path d="M99.69 230.828c-.201 2.667-.253 5.346-.321 8.013h-1.307c.159-2.523.334-5.07.334-8.013Zm3.59 7.232h2.857c.667 0 1.015 0 2.269-.072l-.04.853h-6.526l.039-.913a422 422 0 0 0 5.46-6.318h-3.043c-.614 0-1.03 0-1.884.071l.029-.852h6.352l-.04.9Zm10.025-7.232c.374 1.285 1.335 3.543 2.431 6.74h.026c.84-1.923 2.43-4.973 3.15-6.74h1.721a166 166 0 0 0-.133 6.26c0 .587.013 1.163.028 1.753h-1.176c.068-2.09.161-4.325.161-6.968h-.028l-3.216 6.968h-1.228l-2.51-6.92h-.026c-.227 2.271-.413 4.47-.507 6.92h-1.122c.32-2.534.533-5.407.735-8.013Zm11.521 0c-.201 2.667-.253 5.346-.321 8.013h-1.307c.159-2.523.332-5.07.332-8.013Zm8.797 8.013h-1.39c-.826-1.514-1.881-2.92-2.83-4.373.28.048.576.085.869.085 1.16 0 2.256-.518 2.256-1.683 0-1.105-.907-1.26-1.63-1.26h-1.92a185 185 0 0 0-.241 7.231h-1.281c.199-2.45.346-4.806.359-8.013h3.406c1.28 0 2.536.47 2.536 1.935 0 1.224-1.002 2.246-2.818 2.293Zm1.467-2.606.042-.806h3.283l-.04.806Zm7.45 2.606c.199-2.283.28-4.674.345-7.004l-.972.576.039-.972c.36-.192.734-.372 1.067-.613h1.161c-.186 2.451-.359 5.611-.359 8.013Zm8.275 0c1.147-1.395 3.27-3.844 3.27-5.599 0-1.069-.666-1.8-1.881-1.8-1.161 0-2.03.72-2.03 1.777s.774 1.502 1.895 1.502c.4 0 .788-.084 1.164-.18l-.494.815a5.5 5.5 0 0 1-1.017.11c-1.482 0-2.721-.638-2.721-2.104 0-1.717 1.468-2.667 3.27-2.667 1.723 0 2.99.817 2.99 2.463 0 1.911-1.775 4.134-2.925 5.683Zm8.449-5.778c0 .925.776 1.38 1.736 1.38 1.03 0 1.856-.647 1.856-1.61 0-.922-.748-1.392-1.736-1.392-1.08 0-1.856.647-1.856 1.622m-.387 3.628c0 1.046.868 1.538 2.042 1.538 1.135 0 1.99-.686 1.99-1.743 0-1.021-.934-1.368-1.922-1.368-1.11 0-2.11.444-2.11 1.573m5.074-3.953c0 1.01-.601 1.634-1.55 1.983v.023c.975.18 1.683.769 1.683 1.766 0 1.755-1.59 2.463-3.325 2.463-1.56 0-3.056-.6-3.056-2.198 0-1.07.814-1.777 1.87-2.018v.012-.025c-.856-.264-1.402-.89-1.402-1.766 0-1.573 1.508-2.282 3.07-2.282 1.414 0 2.71.625 2.71 2.042m2.682 6.103.026-.816c2.136-1.995 4.78-4.205 4.78-5.396 0-.924-1.122-1.188-1.951-1.188-.8 0-1.6.17-2.387.348l.16-.853a14.3 14.3 0 0 1 2.59-.24c1.268 0 2.894.383 2.894 1.78 0 1.067-1.174 2.472-4.643 5.62h1.268c1.015 0 2.042 0 3.056-.07l-.054.815ZM46.02 96.71c3.74-5.438 2.497-9.067-.143-10.882-2.553-1.756-5.5-1.29-8.43 2.97l-3.78 5.497a120 120 0 0 1 9.135 7.095Zm-10.275-3.45 2.787-4.051c1.02-1.484 3.304-3.583 6.014-1.72 3.453 2.375 2.508 5.733.441 8.737l-1.883 2.739Zm16.364-21.986c-4.235 4.154-4.14 8.11-1.787 10.507 2.607 2.657 6.366 1.71 9.794-1.652 3.64-3.572 4.398-7.515 1.67-10.296-2.546-2.595-6.282-1.889-9.677 1.441m.763.876c2.702-2.65 5.483-2.783 7.422-.805 2.06 2.101 1.976 5.047-.941 7.908-2.686 2.634-5.551 3.043-7.527 1.028-2.097-2.138-1.887-5.253 1.046-8.13m17.925-8.931c3.012.478 6.06.848 9.12 1.232l-2.23 1.524c-2.87-.598-5.842-.978-8.766-1.412.747-2.67 1.494-5.34 2.058-7.99l2.097-1.434Zm-4.792-3.248c1.961 3.4 4.182 6.935 6.021 9.872l-1.849 1.264c-1.46-2.67-4.388-7.485-6.02-9.872Zm15.342-9.232c.817 2.33 1.903 5.47 2.604 6.995.94 2.046 2.756 2.183 5.378.978 1.846-.848 3.362-2.192 3.095-3.88-.182-1.116-2.223-6.332-2.896-7.852l2.013-.925c.785 2.097 1.488 4.232 2.647 7.033.9 2.178.366 4.5-4.542 6.755-3.86 1.773-6.424 1.333-7.306-.587-.492-1.07-1.984-5.147-3.007-7.592Zm21.429 2.703 4.774-1.27c1.115-.296 1.696-.45 3.766-1.108l.249 1.206-10.91 2.9-.27-1.29a648 648 0 0 0 6.784-11.226l-5.086 1.352c-1.026.273-1.718.457-3.12.937l-.27-1.2 10.618-2.822.267 1.27Zm34.832-14.837-.079 1.196c-1.455-.053-2.909-.037-4.363-.02l-3.44.037-.163 4.001 7.04-.078-.08 1.127-7.017.077-.185 4.175 2.424-.027c1.824-.02 3.624-.058 5.424-.164l-.08 1.23-9.97.111c.326-3.848.491-7.693.518-11.555Zm11.643 7.845-.925 4.871-2.195-.302c.411-1.638.8-3.28 1.122-4.948l-4.012-7.103 2.333.32c.902 1.923 2.068 3.778 2.993 5.688 1.7-1.515 3.465-3.003 5.103-4.578l2.332.321Zm14.691-3.614a339 339 0 0 0-3.467 9.85l3.931 1.114c1.422.404 2.741.743 3.19.851l-.41 1.108-9.216-2.614c1.576-3.782 2.514-6.665 3.795-10.927Zm14.758 5.118c-1.25 2.13-2.942 4.99-3.652 6.511-.953 2.04.116 3.513 2.731 4.734 1.84.86 3.846 1.147 4.96-.148.733-.862 3.393-5.792 4.116-7.288l2.01.938c-1.093 1.955-2.268 3.871-3.654 6.567-1.08 2.095-3.197 3.19-8.09.904-3.849-1.798-5.17-4.039-4.278-5.953.5-1.066 2.643-4.842 3.848-7.202Zm18.71 10.217a341 341 0 0 0-6.384 8.265l3.383 2.292c1.223.829 2.37 1.564 2.761 1.809l-.738.922-7.928-5.374c2.683-3.096 4.478-5.54 7.032-9.183Zm20.314 17.124c-1.995 1.456-4.686 3.404-5.943 4.516-1.687 1.491-1.293 3.27.619 5.431 1.345 1.521 3.07 2.584 4.609 1.84 1.016-.498 5.418-3.96 6.678-5.044l1.469 1.66c-1.781 1.358-3.621 2.648-5.967 4.568-1.824 1.491-4.202 1.652-7.78-2.394-2.815-3.18-3.133-5.765-1.552-7.164.882-.779 4.353-3.388 6.399-5.073Zm13.517 17.356c-1.475 4.081-2.69 8.357-4.027 12.464l.023.04c2.85-1.543 6.954-3.618 8.681-4.677l1.042 1.743c-3.49 1.655-6.898 3.476-10.268 5.33l-1.386-2.319c1.433-4.083 2.62-8.34 3.936-12.382l-.023-.039c-2.844 1.484-5.745 2.975-8.589 4.594l-1.042-1.744c3.501-1.634 6.893-3.447 10.256-5.348Zm9.769 18.945c-3.67 1.187-7.26 2.612-10.842 4.01l-.885-2.081c3.455-1.168 6.95-2.328 10.852-3.99Zm2.882 7.556c-2.947 2.3-5.722 4.887-8.633 7.249 3.906 1.147 7.799 2.56 11.714 3.609l.623 2.199c-4.411-1.532-8.816-3.04-13.244-4.375l-.706-2.488c3.277-2.657 6.412-5.562 9.635-8.348Zm5.697 28.881-1.196.049c-.104-1.452-.276-2.897-.448-4.34l-.405-3.415-3.996.266.83 6.99-1.127.042-.828-6.968-4.171.263.286 2.407c.215 1.81.446 3.597.744 5.374l-1.231.054-1.178-9.903c3.86-.087 7.7-.334 11.543-.721Zm-11.63 17.462.071-2.4c2.223-1.368 4.301-3.13 6.443-4.706a11 11 0 0 0-.165 1.496c-.06 2.006.629 3.922 2.307 3.97 1.592.047 1.864-1.514 1.901-2.76l.097-3.324c-3.455-.31-6.927-.573-10.405-.721l.066-2.215c3.519.45 6.904.804 11.524.962l-.174 5.885c-.065 2.214-.805 4.363-2.915 4.3-1.766-.05-3.185-1.826-3.162-4.966Zm7.963 14.86c.443-.955.789-1.95.972-3.02.325-1.912-.314-3.003-1.066-3.131-2.116-.361-4.604 5.795-7.318 5.332-2.116-.361-2.391-3.077-1.984-5.465.229-1.344.67-2.603 1.145-3.834l1.427.08c-.608 1.09-1.165 2.4-1.386 3.698-.24 1.41-.194 3.198 1.24 3.443 1.809.307 4.707-5.778 7.064-5.377 1.637.279 2.626 1.899 2.059 5.222-.182 1.069-.48 2.096-.795 3.119Zm-1.163 10.087c-3.604-1.382-7.292-2.524-10.957-3.685l.617-2.175c3.422 1.258 6.87 2.548 10.95 3.707Zm-6.234 16.677-1.095-.52c.43-.874.943-2.084 1.152-2.597l.741-1.819c-3.16-1.51-6.262-3.075-9.468-4.382l.846-2.075c3.075 1.63 6.245 3.071 9.406 4.535l.915-2.245c.305-.749.563-1.514.835-2.276l1.096.521Zm-11.114 6.45-4.15-2.71 1.113-1.915a92 92 0 0 0 4.148 2.922l8.096-1.004-1.185 2.035c-2.12.1-4.28.473-6.398.603.752 2.146 1.455 4.345 2.288 6.46l-1.183 2.035Z"/><path fill-rule="evenodd" d="M120.036 154.001c-.098 0-.174.18-.18.257-.01.061.02.19.082.21.056.015.119.061.169.077 0 0 .119.01.119-.036 0-.04.05-.087.05-.112.01-.052.042-.119.042-.166 0-.05.03-.1.04-.168-.04-.016-.122-.062-.163-.062Zm-8.144-19.059c.045 0 .164.02.215.02h.139c.057 0 .057 0 .107-.05.026-.021.083-.078.083-.078v-.087c0-.026-.057-.082-.057-.108s-.026-.051-.056-.113a.5.5 0 0 0-.19.062c-.077 0-.103.025-.133.025s-.063.052-.063.052h-.076c-.052 0-.052.082-.052.082h-.051l-.061.03v.03l-.021.027v.077h.082l.05.03h.027Zm-2.895-27.102c0-.138-.026-.317-.139-.42a2 2 0 0 0-.179-.077c-.02-.025-.082-.082-.103-.103-.04-.041-.154-.102-.205-.164-.04-.041-.062-.097-.124-.138-.056-.041-.077-.097-.102-.143-.072-.12-.159-.304-.236-.422-.04-.082.103-.282.021-.34-.237-.168-.462-.147-.749-.066-.103.02-.4.042-.4.186 0 .24.158.282.245.4.015.04.092 0 .118.06.103.228.421.505.58.668.144.139.288.278.421.42.082.083.247.16.262.243 0 .118 0 .26.041.385l.087.035c.062.02.236-.123.282-.138.098-.056.18-.221.18-.385m3.653 39.34c-.132.082-.405.164-.405.41v.304c0 .051-.19.133-.245.133-.032 0-.191.025-.165.107 0 .031.057.057.057.083.02.081.266.272.323.194l.03-.055c.03-.058.159-.222.19-.329 0-.057.052-.133.052-.22 0-.052.03-.134.03-.19 0-.027.134-.165.164-.196.02-.05.052-.21-.03-.24m-5.789-41.496a.5.5 0 0 0 .118-.103c.077-.041.18.026.18-.118 0-.061-.18-.097-.195-.16-.067-.046-.206-.123-.24-.184-.048-.056-.089-.14-.166-.18-.087-.04-.056-.123-.087-.04 0 .04-.016.123-.016.164 0 .056-.015.139 0 .195 0 .025.062.082.062.108 0 .036.041.159.041.2 0 .097.041.242.14.262.04 0 .137-.144.163-.144m7.175 28.491c-.298 0-.57-.056-.842.052a.43.43 0 0 0-.267.22l-.03.077v.062c0 .077 0 .159.107.159.113 0 .246.087.375.06.118 0 .225-.06.329-.086.08-.025.194-.056.277-.056 0 0 .108-.051.163-.051 0 0 .103-.057.103-.088 0-.133-.103-.323-.215-.35m2.232 9.926c-.052.03-.169.107-.185.139 0 0-.118.025-.139.051-.051.056-.107.031-.169.081-.159.139-.076.032-.19.083 0 0-.051.056-.051.108s-.113.246-.113.277c0 .052-.103.298-.026.323 0 0 .251 0 .272-.025a.4.4 0 0 1 .195-.083l.082-.056c.021-.025.078-.077.078-.077.107-.03.061-.138.107-.138h.031c.056 0 .082-.082.082-.114.026-.055.164-.159.185-.215a2 2 0 0 1 .328-.379c.057-.057.139-.169.113-.273a.6.6 0 0 0-.113.077c-.164.027-.41.164-.487.221m-10.299-25.854c0 .015-.032.17-.032.184-.015.067-.134.17-.149.278-.015.081-.138.374-.174.405-.01.015-.036.123-.046.138a.27.27 0 0 0-.072.17c.051.138.072.21.236.21.308 0 .77-.328.77-.616 0-.415-.124-.79-.154-1.2-.21 0-.344.257-.38.431m35.836-3.541.185-.041c.6 0 .262-.338.035-.493-.718 0-.892.534-.22.534m-39.346-9.304c.123.031.616.544.441.016-.01-.078-.123-.453-.235-.437-.058-.19-.114-.354-.309-.385-.127-.015-.477-.364-.636-.205-.4.4.401.928.739 1.011m20.055 48.727s-.072-.083-.108-.119l-.03-.026-.042-.025s-.009-.139 0-.164c.138-.247-.21-.35-.39-.39-.149-.036-.189.518-.189.625 0 .1-.237.745-.01.745.184 0 .271-.03.431-.149.246-.174.2-.093.174-.052.015-.014.026-.046.082-.107.02-.03.148-.129.148-.179 0-.03-.009-.159-.009-.159ZM91.56 107.153c.025-.03.2-.061.2-.118s.23-.287.312-.37c.113-.117.17-.2.288-.317.256-.257-.483-.108-.513-.17-.262-.4.338-.826.6-.882.138-.026.313-.288.508-.344 0 0 .174-.17.144-.232-.03-.05-.23-.138-.319-.194-.507.113-.708.313-1.02.626-.114.118-.345.2-.406.313-.195.4-.852.975-.308 1.514.056.056.395.287.513.174m17.793 10.649c.307 0 .65.63.62.924-.051.389-.313.646-.4.99-.061.293.205.806.519.806.27 0 .795 0 1.052-.103.364-.138.43-.205.194-.58-.277-.415-.123-.862-.36-1.267-.204-.344-.687-.91-1.04-.888-.072-.021-.585-.175-.596-.16-.076.068-.23.278.01.278m-5.629-12.656c.03.016.092.031.134.031.087 0 .04.015.133-.03.04-.016.482-.144.539-.166-.057-.09-.072-.127-.14-.158a.4.4 0 0 1-.102-.082l-.02-.03c-.031-.032-.236-.068-.288-.068-.092 0-.164.056-.256.067-.083.061-.241.21-.133.288.05.035.082.133.133.148"/><path fill-rule="evenodd" d="M200.774 178.68c-.113 0-.21-.164-.21-.37 0-.199.097-.364.21-.364s.205.165.205.364c0 .206-.093.37-.205.37m.041-1.925c.057 0 .098.088.098.196s-.04.195-.098.195c-.052 0-.093-.087-.093-.195s.041-.196.093-.196m-.61-.194c0 .148 0 .262-.175.262-.21 0-.323-.155-.39-.283-.088-.174-.324-.43-.452-.564a2.3 2.3 0 0 0-.364-.303c-.03-.02-.323-.344-.323-.344q0-.171.045-.303c.016-.128.231-.308.34-.283.107.027.456.52.492.632l.174.016c.155.148.35.328.503.476.164.175.15.478.15.694m-2.335-4.778c.133-.283.112-.477.471-.374.092.113.174.22.246.307.057.088.057.298.175.364.062.047.032.047.032.087.03.068.286.196.328.222 0 .148-.083.128-.042.251.021.092.021.267.021.38 0 .19.194.492.241.662.17.738-.478.087-.565 0-.384-.39-1.293-1.099-.907-1.899m-1.345-12.06c-.052-.02-.104-.103-.104-.185v-.364c0-.159.134-.318.232-.426l.211-.129.056.052c.031 0 .056.185.056.21 0 .027.128.32.128.37l.026.16c-.21.05-.39.42-.605.312m.395 11.731c0 .046 0 .082-.046.134l-.103.128h-.04l-.048-.02-.025-.02-.056-.067v-.073l-.047-.014-.03-.047v-.539h.077c.04 0 .081.041.128.041.523 0 .19.287.19.477m-.713-5.844c-.155-.159-.205-.529-.396-.714-.359-.369.062-.84.483-.738.282.05.312.292.36.501.03.078.188.262.21.371-.18.102.056 1.236-.21 1.236-.18 0-.18-.128-.314-.153-.077 0-.046-.426-.133-.503m-.786-9.258c-.077.261-.138.55-.498.318-.164-.108-.503-.4-.503-.585s.133-.529.083-.709c-.057-.159-.298-.082-.298-.503 0-.61-.226-1.185-.226-1.796 0-.369-.349-1.447-.636-1.636.493 0 1.817 2.72 1.817 3.171 0 .441.44 1.133.261 1.74m-1.39.261-.036.026v-.077c-.016-.103-.128-.159-.128-.21-.03-.159-.155-.21-.237-.314 0-.03-.082-.189-.082-.21 0-.083 0-.138-.02-.19-.083-.133-.216-.293-.262-.395-.056-.108-.056-.16-.138-.24-.073-.109-.103-.13-.047-.262.047-.109.077-.057.16-.057.164 0 .522.457.522.642.104.21.155.441.216.651 0 .061.072.082.072.134.032.138-.02.37-.02.502m-1.14-4.059c-.102-.077-.395-.369-.44-.503-.028-.057-.028-.077-.115-.077-.05 0-.096.077-.096.103-.027.16 0 .338 0 .502 0 .11.21.53-.057.53-.108 0-.287-.083-.42-.083-.212-.318-.997-1.585-.997-.529 0 .082.103.134.103.34 0 .24.051.502.083.743.076.396-.24.631-.369.078-.114-.503.204-.632-.35-.822-.318-.102-.18.293-.339.451-.056.052-.189.11-.266.191-.206.21-.134.025-.344-.03-.098-.027-.128.21-.15.26-.107.216.237.693.211.847a.29.29 0 0 1-.272.211c-.39 0-.677.057-.893-.236-.184 0-.523.082-.44-.21.045-.185.42-.243.573-.344.268-.186.058-.216 0-.318-.08-.155-.317-.339-.39-.503-.082-.155-.47-.919-.558-.842v.164c0 .052 0 .128.03.18.19.37.555.498.16.892-.135.14-.555-.262-.61-.312l-.105-.108c0-.02.032-.103 0-.103h-.055c-.103 0-.047-.158-.159-.21-.073-.03-.016.02-.047-.082 0-.026-.103-.205-.103-.205-.025-.032-.163-.032-.189-.134-.026-.159-.232-.528-.39-.61 0 0 .025.082.025.107v.082c0 .077.051.154.082.211.051.077.155.158.185.21l.046.102.108.082v.13l.082.16c.051.131.287.84.185.921l-.113.11c-.95-.32-.575-2.193-1.919-2.193-.237 0-.365-.764-.555-.472-.046.078-.605 1.078-.605.313 0-.949-.447-.764-.996-1.313-.549-.56.051.21-.636.102-.492-.77-1.37-1.77-.84-2.823.21-.446.63-.164.978-.164.262 0 .16.217.371.35.363.236.42-.109.753-.109.114.027.134.185.267.262l.103.083.108.128c.03.056.076.138.102.16 0 0 .165.317.165.163 0-.107.045-.107.097-.185.057-.082 0-.082.133-.108.088 0 .19-.03.293-.03.318-.027.478.37.55.534.133.262 0 .312.055.548.032.108.18.421.293.452 0 0 .231 0 .231-.03 0-.18.077-.55.318-.314.16.16.344.237.451.447.021.077.237.636.237.288v-.052c0-.123-.026-.103-.108-.159-.129-.103.021-.467.133-.467.236 0 .498-.108.73-.108.4 0 .717.236.903.611.123.257.625.631-.03.631-.053 0-.659-.667-.422-.164.056.107.16.266.184.395.11.426.453.74.453 1.14 0 .37-.062.497.077.815.102.287.363.287.58.026.205-.052 0-.893.076-.975.077-.083.13-.345.16-.267.024.133.682.928.728.662 0-.05.061-.165.138-.165.073 0 .18-.02.237-.096.16-.24.39-.375.39-.662 0-.186.031-.37.031-.585.241-.473.528.055.708.265.164.186.712 1.14.712.658 0-.179-.214-.338-.214-.549 0-.134.158-.58.37-.267.552.847 1.58 1.801 1.58 2.956 0 .19-.186.79-.186.37 0-.294-.133-.79-.47-.945-.053-.057-.053-.113-.053-.189 0-.083-.05-.032-.077-.104a.47.47 0 0 0-.19-.21m-.287 3.084v.026s-.03.081-.03.103c0 .061-.078.133-.104.16-.02.05-.02.05-.102.05s-.128-.02-.128-.077l-.027-.05-.03-.022-.03-.108v-.03l-.047-.103-.03-.05v-.032c-.073-.108-.077-.472.077-.472a.3.3 0 0 0 .087-.03c.046 0 .128-.027.153-.027h.077s.057.026.057.057c0 .02.026.082.026.102.051.118.051.282.051.452Zm-.077 4.25c-.077.076-.077-.026-.077-.026-.027-.032-.114.025-.134-.032 0-.025-.05-.076-.05-.076-.053-.052-.263-.344-.263-.42l-.03-.032a.18.18 0 0 1-.056-.102c0-.05-.047-.185 0-.262.025-.03.323-.03.37-.03.03.158.163.21.163.374 0 .16.077.205.077.338 0 .032.026.242 0 .267m-.765-2.165c-.05 0-.077.051-.133.103l-.046.031c-.087.03-.062.03-.139.03 0 0-.05 0-.062.005 0 0 .021.005-.04.041-.133.082-.18-.076-.288-.076-.164 0 .077-.109.077-.109a.7.7 0 0 0 .262-.21l-.052-.026c-.03-.025 0-.21 0-.267 0-.07.155-.21.242-.21l.148.082c-.02.078-.02.154.031.185.051.021.082.103.082.154 0 .081.026.242-.082.267m-1.179-2.377c0-.019-.083-.019-.083-.019-.03-.032-.03-.109-.03-.139 0-.052-.052-.104-.052-.154 0-.078.031-.185.031-.267.051-.21.471-.446.657-.473.081 0 .103.052.133.052.051 0 .134.128.18.185.102.051.132.051.164.154v.03c0 .052 0 .18-.062.262a5 5 0 0 1-.334.4c-.08.077-.189.16-.318.16-.128 0-.262-.083-.286-.19m-.53.292h-.241l-.046-.03h-.344s-.138-.052-.138-.072v-.209h.03v-.058l.057-.026h.051l.026-.026.046-.03.061-.026.073-.026h.061s.077.026.077.052l.046.056c.026.026.082.051.103.083a.6.6 0 0 1 .138.153Zm-1.74-.102v.102s-.019.052-.019.082c0 .025-.088.025-.088.025-.046 0-.046-.025-.046-.08 0-.058-.026-.129-.082-.16l-.052-.052c0-.025-.05-.077-.05-.108v-.102l.02-.056.03-.052v-.02h.052l.082.046c.046.056.134.165.184.215 0 .021-.03.103-.03.16m-7.334 21.296c-.01.041-.102-.02-.107-.03l-.01-.072c0-.01-.026-.046-.026-.057-.016-.066-.016-.133-.016-.194 0 0 .016-.04.016-.052 0-.02.036-.143.036-.143h.082c.046 0 .087.082.087.123.015.092.015.173.015.236 0 .066-.056.128-.077.19m-.323-27.266c-.03.031-.123.134-.123.165v.046l-.03.036-.032.046-.02.051h-.082l-.052.026h-.082l-.05-.026h-.032s-.072-.025-.103-.05c0 0-.025-.047-.025-.083 0-.046.025-.128.025-.154s.052-.057.052-.077l.031-.056a1 1 0 0 1 .21-.16c.128.057.072.108.16.057l.03-.057h.175s.03.057.03.082c0 .052-.062.134-.082.154m-.385 27.38c-.06.204-.487.897-.585.374-.046-.298.14-1.069-.23-1.135-.22-.046-.16.405-.42.272-.289-.143-.279-.59-.463-.764-.262-.268-.262-.262-.637-.262-.134-.129-.195-.21-.175-.416.011-.093.123-.273.227-.287.287-.068.19-.534.256-.744.047-.2.211-.375.457-.293.261.082.143.467-.046.575-.134.01-.092.36.015.36.16 0 .35.004.488.034.123.037.18.252.18.375.06.196.077.924.158 1.027.133.184.088-.123.226-.205.057-.026.724.282.724.477 0 .35-.088.37-.175.611m-2.376-28.723.134-.077.184.056c.21.051.36.365.447.55.046.215.154.184.184.266 0 .025.103.185.103.211 0 .102-.026.236-.026.338 0 .165-.03.165-.164.165-.123 0-.123-.134-.184-.21-.077-.109-.257-.242-.309-.376 0-.02-.082-.045-.082-.076l-.03-.077c-.103-.109-.123-.216-.18-.319-.025-.052-.179-.03-.23-.107-.057-.077.051-.314.153-.344m18.264 7.415c.18.026.206.34.206.53.107.42.262 1.076.16 1.426 0 .051-.207.472-.263.262-.03-.083-.056-.134-.056-.262 0-.242 0-.504-.047-.714-.056-.21-.395-.873-.374-1.03.056-.294.164-.263.374-.212m2.14 12.851c.113 0 .174.112.174.214v.13c-.189.071-.133.137-.215.22l-.06.087h-.114c-.04 0-.082-.04-.082-.067 0-.169.077-.584.297-.584m.431 2.078c.093-.088.221-.298.35-.298.132 0 .061.107.148.13 0 0 .066 0 .066.02a.8.8 0 0 1 .047.214c0 .128-.047.195-.129.303 0 .083-.199.195-.246.195a.5.5 0 0 1-.256-.087c-.083-.047-.02-.43.02-.477m-10.525 15.677c.236-.097.426.262.447.478-.036.092.122.22.122.312 0 .144-.07.262-.07.396 0 .235-.392.503-.509.262-.118-.252-.339-.544-.339-.826 0-.252.107-.529.35-.622m.866-1.458c.195-.143.513.396.657.545.164.14.35.163.38.37.046.25-.123.466-.375.59-.103.046-.262-.042-.308-.108-.129-.175-.323-.482-.39-.689-.113-.255-.23-.502.036-.708m.75 20.841c0 .021-.042.021-.042.021-.062.035-.076.303-.174.317 0 0-.164.042-.164-.014a.55.55 0 0 0-.113-.288c-.016-.036-.113-.092-.128-.113 0-.016-.02-.077-.02-.077s-.057-.01-.057-.035a.4.4 0 0 0-.057-.113c-.057-.052-.057-.098-.057-.17 0-.036.093-.205.114-.226.056-.057.246-.036.318-.036.051 0 .134-.076.134-.076.071 0 .112.096.112.112.03.134.133.298.164.437-.05.051-.03.184-.03.261m-4.588 4.747c-.093.185-.359.36-.488.488-.302.302.057 1.051-.38 1.34-.158.107-.24.02-.374.02-.072 0-.072-.945-.087-1.058-.098-.482.241-1 .636-1.179.133-.068.354-.047.507-.047l.11-.036c.076 0 .147.17.173.246.015.093-.056.15-.097.226m-11.783-57.189c0 .211 0 .293-.159.427-.056.046-.108.096-.19.096 0 0-.102 0-.102-.02 0-.139-.129-.349-.19-.349 0 0-.047-.02-.047-.052 0-.025-.056-.076-.082-.102-.047-.077-.102-.159-.102-.267 0-.05.055-.082.077-.133.082-.154.19-.154.374-.154.097 0 .128.026.236.077.211.108.185.318.185.477m-1.95.102h-.215c-.103-.025-.02-.025-.103-.05-.052 0-.025-.082-.102-.082-.134 0-.115-.047-.115-.047h-.076l-.046-.03v-.18l.046-.03.03-.032.078-.05h.083s.05.03.077.03l.081.02.077.062.057.046.046.056c.056.026.16.077.241.108-.057.13-.108.18-.159.18m-.159 1.032c-.026.102-.077.102-.129.153-.113.082-.159.318-.293.318h-.132c-.18 0-.18-.159-.18-.318 0-.23.18-.44.312-.63.161.056.345.056.345.056.123.025.123.102.123.21 0 .072-.046.154-.046.211m-8.945 2.426c0 .134 0 .288-.057.427-.107.256-.395.524-.68.524-.135 0-.346-.052-.449-.103l-.077-.108c-.03-.03-.132-.057-.159-.082-.107-.103-.139-.339-.139-.472 0-.159.166-.262.216-.344.16-.236.627-.16.893-.16.165 0 .165.052.288.077.133 0 .185.036.185.108 0 .057-.02.077-.02.133m-16.597 54.562c-.154 0-.22.077-.308.092-.293.061-.472.278-.744.431-.288.175-.519.16-.519-.293 0-.27-.179-.662.231-.662.334 0 1.221.1.7-.425-.17-.174.096-.313.306-.313.431 0 .724.236 1.093.37.093.328-.467.8-.759.8m2.396-57.189c-.04.02-.076.02-.112.057a.8.8 0 0 1-.22.144s-.427.271-.463.123c-.04-.144.087-.216.14-.287.127-.145.404-.18.58-.18l.178.056c-.056.015-.087.087-.103.087m-1.247.057c0 .03-.05.03-.05.03l-.032.057c-.04.036-.122.123-.154.144-.01.015-.05.077-.087.091a1 1 0 0 1-.25.036.7.7 0 0 1-.197-.05c-.107-.077-.07-.077-.07-.185 0-.036.034-.056.056-.072.086-.088.143-.216.23-.287.057-.036.123-.093.195-.129.092.077.277.077.416.077 0 0 .015.108.015.123 0 .072-.05.108-.072.165m-18.002-4.064c.395.21.903 2.448 1.124 2.981.107.298 1.278 3.176.318 2.772 0-.699-.405-1.715-.539-2.392-.134-.78-.4-1.479-.61-2.177-.108-.323-1.294-1.344-.293-1.184m4.948 8.195c-.566-.35.138.421.086.534-.282.425-.703.174-1.139-.113-.169-.057-.785-.648-.99-.853-.257-.256-.79-.68-.79.032 0 .256.4.37.4.595 0 .144-.339.657-.339.908 0 .288.077 1.027-.2 1.165-.23.113-.518.283-.796.338-.534 0-2.237-.564-2.606-.933-.196-.2-.54-.2-.822-.344a16 16 0 0 0-1.416-.57c-.339-.169-1.668-.647-1.278-1.278.344-.533 1.503.062 1.904.15.482.107.852.194 1.385.194.257 0 .452.257.71.34.174.056.451.086.738.086.282 0 .646.061.96.061.087 0 .22-.03.22.052 0 .057.062.087.062.144 0 .143-.062.344-.144.426l-.082.2c0 .138-.026.54 0 .652 0 .03.143.082.143.082.021.057 0 .057.14.057.03 0 .143-.027.174-.027.107-.082.23-.338.23-.507.073-.144.39-.94.334-.97-.087-.057-.03-.79-.087-1.022-.082-.338.087-.512.288-.739 0-.056.308-.733.364-.877.087-.257.282-.852.282-1.196 0-.477-.164-1.59-.308-2.068-.174-.57-.396-1.308-.396-1.934 0-.283-.143-.54-.143-.878 0-.452-.056-.744-.395-1.083-.2-.195-.23-.282-.287-.57-.057-.226-.396-.452-.45-.62-.146-.457.085-1.165-.515-1.39 0-.258-.308-.684-.39-.94-.113-.37-.2-.652-.344-.96-.37-.77-1.022-.77-.877-1.904.03-.056.205-.148.251-.169.057-.03.174-.175.231-.205.056-.027.082-.027.15-.052 0 0 .22-.144.22-.175.05-.113.025-.056 0-.08v-.058h-.17c-.118.025-.287.025-.43.025-.17 0-.365.032-.54.032-.113 0-.02-.057-.083-.057l-.112-.062c-.057-.025-.277-.082-.277-.169v-.195l.22-.03c.057 0 .17-.089.252-.113.143 0 .4-.113.54-.139h.205c.081-.056-.088-.226-.088-.226-.287-.205-.77-.149-1.098-.149l-.35-.164c-.025-.03-.255-.318-.307-.37-.17 0-.252.14-.375.165-.05 0-.272-.052-.272-.052-.144-.03-.687-.318-.713-.456-.113-.483.262-1.196.262-1.678 0-.226.102-.195.277-.308.113-.082.477-.169.477-.313 0-.288.144-.57.231-.796 0-.656.251-1.565.703-1.79.457-.226 1.334-.257 1.755-.683.118-.113.262-.308.375-.395.37-.283.846-.514 1.272-.739.057-.195.226-.452.226-.62 0-.145-.138-.432-.256-.514-.396-.257.348-.652.513-.765.282-.175.451-.318.765-.457.117-.056.282-.113.425-.113.277 0 .421-.174.621-.318 0-.59.934-1.416 1.56-1.217.447.144.365.201.74-.06.276-.195.62-.283.672-.59.112-.483.708-.602 1.16-.709l.117-.23c.057 0 .114-.063.114-.063.087-.077.2-.077.312-.139.051-.025.878-.225.621-.4-.118-.082-.395-.107-.538-.138-.114-.03-.226-.138-.34-.138a1 1 0 0 1-.287-.088s-.05-.087-.113-.087c-.082 0-.082 0-.05-.026.03-.03.03-.113.03-.113l.452-.118h1.323c.32 0 .627-.113.966.062.23.112.738.308 1 .308.847 0 1.524.313 2.345.425.144-.05.4.145.37.226-.026.087-.226.087-.288.087-.205 0-.45.062-.657.062-.44 0-.872-.2-1.349-.2-.149 0-.904.17-.452.226.201.031.452.175.652.2.102.082.256.026.364.057.113.025.252.112.365.112h.143c.113 0 .088.026.144.052.031.03.257.087.257.087.195.031.251.087.251.257 0 .061.026.143.026.174 0 .113-.026.164-.108.226-.06.025-.118.144-.143.164-.058.031-.088-.05-.088.093s.144.708-.113.708h-.564c-.23 0-.452.025-.678.025-.149 0-.652 0-.539.262.062.108.17.252.308.308 0 0 .508.287.375.426-.175.17-.544.2-.77.34-.056.03-.334 0-.42 0-.319 0-.23.225-.23.4 0 .112.08.481.2.512.224.057.45 0 .707 0 .313 0 .03.364-.03.483-.027.087-.422.03-.56.056-.457.112-.375.54-.375.97 0 .503-.082.477-.565.534-.877 0-1.559.112-1.929.852-.139.282-.508-.17-.646-.17-.308 0-.77.226-1.053.282-1.046.257-2.488.79-3.566 1.135.14 0 .338.175.513.2.164.025.452.056.585.087.344.082.857.195 1.191.195.148 0 .148.225.148.344 0 .143-.544.113-.6.282-.082.313-.708.57-.929.71-.169.086-.375.116-.539.173-.174.056-.318.164-.45.225a1.67 1.67 0 0 1-1.248.026c-.118-.026-.765-.226-.827 0-.02.148.144.2.258.231.37.082.933.113 1.334.113.281 0 .42-.062.42.256 0 .252-.139.37-.39.37-.23 0-.518.026-.739.026-.174 0-.318-.057-.287.087-.226 0-.483.026-.734.026-.257 0 .17.395.343.57.308.307-.995.656-.174 1.051.282.144.652.257.965.37.538.195.596.713 1.047.94.37.163.564 1.246.646 1.723 0 .031.031.12.062.15 0 0 .082.02.082.056 0 .05.087.137.113.195.031.061.087.061.087.112v.114c0 .086.118.225.118.287 0 .087.083.194.083.282 0 .118.02.057.051.118l.056.17.057.025.03.087c.057.057.226.14.257.226 0 .056.087.225.087.251v.237c.031.051.477.62.426.672-.062 0-.062.713-.062.795v.687c0 .283-.087.59-.087.878 0 .082.087.144.12.201.055.082.173.2.173.307 0 .113-.03.232-.03.34 0 .117.05.23.05.317 0 .082-.082.17-.113.226-.08.112-.08.14-.08.257 0 .338.193.677.393.877.031.031.057.426.057.508 0 .15.026.231-.026.344.052.205.216 1.17.333 1.473.145.35.17.801.406 1.026.277.287.277 1.673.277 2.105 0 1.046-.2 1.53-1.102.995m.574 2.396c-.082.113-.41.196-.534.196-.323 0-.349.374-.379.558-.027.19-.349.14-.463.082-.154-.082-.318-.132-.45-.266-.053-.057.05-.298.112-.405.338-.698-1.03-.596-.754-1.16h.19c.051 0 .291.031.348.031.262.05.642.16.934.19 0-.03.16.076.298.076.077 0 .318.026.4.026.216.056.462.406.298.672m-22.893-37.139c0 .083 0 .262-.046.32-.015.025-.098.04-.098.04-.077 0-.098.062-.098.062-.077 0-.097.02-.097.02-.082.236-.898.174-.81-.144.015-.098.138-.25.215-.334 0 0 .062-.015.097-.056l.103-.02a.3.3 0 0 0 .082-.082c.056 0 .113-.042.113-.042.072-.02.072-.082.072-.082.087 0 .148.041.19.041.112.021.056.083.16.12.071.024.117.044.117.157m6.887-1.765c0 1.447-1.324 1.073-2.176 1.73-.24.195-.77.297-1.083.297-.739 0-1.509.257-2.202.257-.22.056-1.267 0-1.195-.38.103-.416.287-.672.498-1.01.518-.776 1.288-.478 2.103-.478.632 0 .93-.313 1.545-.313h.488c.241 0 .375-.04.6-.103.128-.04 1.842-.205 1.422 0m5.188 33.413c-.267.17-.487-.169-.662-.287-.405-.257-.544-.112-.544.401 0 1.051-.6.343-.739.425-.375.226-.113.775-.113 1.145 0 .964-1.457.801-2.14.801-.538 0-1.026-.345-.43-.946.143-.142-.02-1.826-.196-2.083-.374-.569.483-.62.483-.744 0-.308-.339-.113-.339-.426 0-.17.031-.512 0-.682-.088-.4-.288-1.509.195-1.653 0-.256-.082-.462-.164-.657-.119-.23-.062-.713-.062-.974 0-.308-.23-1.079-.092-1.222 0 0 .236-.775.236-.83 0-.113-.062-.37-.082-.484-.154-.626-.862.201-.914.426-.205.662-.975.976-1.344 1.627 0 .144-.226.401-.226.601 0 .143.082.4.082.594 0 .663-.595.69-.708 1.145-.057.227-.118.544-.375.544-.262 0-.292.508-.313.708-.06.231-.313.144-.374.345-.078.025-.658 1.482-.658 1.77 0 .656-.312 1.17-.312 1.74 0 .63-1.427 3.083-1.935 3.083-.6.283-.888.565-1.57.565-.596 0-1.114-.565-1.709-.713-1.35-.313-1.858-1.458-2.145-2.68-.175-.744-.8-1.313-.965-2.113 0-.22-.03-.508.082-.678.112-.175.287-.4.431-.545.113-.112.365-.173.452-.26.03-.026.431-.283.523-.283.246-.056.303-.312.421-.482.051-.118.318-.318.452-.4.143-.226.636-.4.831-.539.256-.175.513-.493.77-.576.605-.199 1.026-.825 1.364-1.343.118-.165 1.09-.827.576-.934-.432-.093-1.227.595-1.422.913-.119.164-.405.708-.605.765-.222.061-.878.544-1.053.682l-.595.606c-.093.2-.293.082-.293.37 0 .056-.256.543-.312.543 0 0-.8.482-.914.395-.139-.087-.082-.512.082-.57.205-.056.031-.686.031-.944 0-.286.174-.308.262-.508.056-.149-.088-.8-.175-.513-.056.17-1.052 1.28-1.282 1.427-.145.082-.776-.148-.97-.148-.458 0-.683-.627-.996-.997-.17-.113-.487-.512-.739-.595-.175-.062-.144-.688-.406-.858-.714-.46-.108-1.2.54-1.343.656-.139.03-.883-.196-.997-.544-.26-.544-.799-.8-1.4 0-.544.518-.739.944-.739.657 0 .882-.57.37-.456-.4.081-.514.312-.627-.2-.056-.227-.287-.257-.375-.37-.312-.458.088-.97.258-1.314.148-.288.692-1.396.374-1.54-.488-.225.287-.399.287-.657 0-.713-.487-.343-.8-.143-.77 0-1.027.887-1.4 1.426-.058.088-.489.257-.54.313-.03.031-.713.345-.42-.025.163-.23.677-.688.728-.944.087-.4.687-.996.893-1.314.256-.4 1.282-.908 1.282-1.504-.574 0-.174-.83-.174-1.088 0-.343-.769-.826-.344-1.37.205-.257.031-.657-.056-.914-.088-.312.144-.826.287-1.169 0-1.165.205-2.166.452-3.28.23-.97 1.262-2.365 1.262-3.248 0-.262.364-1.945.54-2.058.687-.456.543-.308-.2-.539-1.14 0-2.598 0-3.742-.175-.478-.05-.375-.45-.082-.744.374-.364.775-.312 1.34-.395.091-.087.313-.087.43-.195.113-.123.226-.205.308-.374.144-.283.12-.657.523-.744.103-.026.452-.113.565-.113.205 0 .626-.17.775.056.2.314-.293.714-.149 1.001.082.174.37.144.57.113.143-.226.492-.683.55-.919.055-.195.651-.508.563-.713-.2-.395-1.395-.339-1.827-.339-.307 0-.882-.169-1.22-.169-.35 0-.263-.17-.206-.426.775-.769 1.313-2.935 1.313-4.193 0-.575-.656-.857-.656-1.164 0-.344-.082-.663-.257-.919-.17-.23.144-.6.175-.914.2 0 .313-.113.513-.03.118.056.174.343.287.374 0 0 .852.657.596.113-.083-.174-.17-.43-.283-.6-.138-.2-.832-.05-.426-.457.082-.082.39-.082.426-.169.087-.2-.118-.344-.292-.314-.113.031-.54.031-.54-.174 0-.082.263-.652.293-.765 0-.313.596-1.119.77-1.375.221-.339.031-1.02.277-1.42.206-.315.893-.258.975-.37.262-.396.144-.94.34-1.37 0-.345-.196-.576-.196-.976 0-.395-.062-.62-.23-.965-.365-.744.137-1.026-.714-1.596-.4-.256-.652-.626-.888-1.089-.308-.625-.277-.174-.539-.11-.318.06-.714.168-.714-.37-.343-.176-.769-.227-1.057-.427a1.4 1.4 0 0 0-.908-.288c-.282 0-.43-.113-.605-.287-.278-.282-.42-.25-.42-.708 0-.257-.058-.95.025-1.114.087-.205.425-.256.457-.544.112-.4-.4-.313-.4-.539 0-.06 0-.205.06-.205.052 0 .227.031.308.031.494 0 .913.544 1.284.174.174-.174.374-.57.75-.456.132.026-.032.426-.063.508.221.108.41-.02.514-.02.061 0 .046.066.046.107v.21c0 .082-.15.082-.17.102-.082.083-.169.253-.169.36 0 .062-.082.13-.103.19-.108.061-.549.036-.63-.026-.145-.102-.355-.375-.566-.375-.503 0 0 .714.124.837.113.103.128.124-.04.124-.186 0-.227-.103-.104.154.082.164.205.328.272.503.128.076.128.061.272.076.082.021.195.123.272.15.251.061.374.36.672.42.185.041.416.21.59.334.144 0 .478.041.58.107.164.103.318.313.442.436.102.114.143.34.338.34.165 0 .35-.042.52-.042.142 0 .23.103.352.17.123.035.211.266.293.333.036.021.036.021.067.087.02.036.082.103.123.144.02.021.062.103.087.123h.098v.046l.17.108c.23.118.21.165.405.165 0 0 .015-.016 0-.047 0 0-.128-.143-.128-.164 0-.02-.047-.04-.047-.04-.123-.13-.02-.38.102-.443.103-.046.273-.02.401-.066.077-.077.288-.478.38-.179.036.143.266.584.431.584.128 0 .298-.026.36.103.102.205.245.333.42.462.395.292 1.19.857 1.365 1.32.16.106.205.522.498.568.077 0-.108-.61-.108-.656 0-.206.21-.103.236-.057.041.102.144.077.226.144.077.061.4.271.431.421.066.21-.16.102-.195.148-.067.041-.067.123-.134.123-.06 0-.102.021-.102.103 0 .17.061.318.061.483.144.087.175.528.395.584.15.047.34.32.483.401.231.15.462.775.708 1.031.175.17.34-.318.611-.318.205 0 .19 1.237.123 1.345 0 .087.205.323.272.354.19.072.277-.396.303-.354.051.123.102.123.102.298 0 .287.18.354.303.538.15.216.108.462.15.698.025.123.061.965-.083.965-.103 0-.246-.195-.277-.257-.093-.21.052-.898-.015-1.216-.047-.21-.396-.57-.56-.57-.128 0-.154.15-.154.257 0 .123-.015.251-.015.38 0 .354.056.8.041 1.128 0 .19-.04.483.251.483.144 0 .415.108.308.318-.082.191-.64.544-.43.878.101.17.481-.19.481.334 0 .271.626.882.626.4 0-.523.914-.734.77-1.175-.215-.673.436-1.258 1.047-1.258.436 0 .128.78-.02.78-.339 0-.565.878-.647 1.211-.046.334-.215.631-.215.924 0 .21-.02.564-.078.754-.067.232-.276 2.037-.046 2.08 0 0 .278-.21.278-.232.04-.123-.027-.44-.027-.57 0 0 .067-.097.088-.123.015-.02.123-.123.123-.169.041-.123.062-.252.062-.396 0-.169.061-.503.123-.61l.102-.17-.117-.184c-.047-.19.17-.883.395-.842.271.062.482.36.482.652.313.651-.154 2.458.37 2.787.195.128.672-.375.861-.442.083-.02-.08.298-.08.34 0 .188.25.296.265.44.047.292-.144 1.51-.462 1.524-.123.221-.513.575-.389.801.23.4.836.4 1.006.882.313.878-.55 1.325-1.325 1.325-.852 0-1.149-.74-2.062-.319-.4.19-1.202.232-1.638.232-.795 0-1.57.333-2.15-.396-.298-.38-.462-.21-.842-.066-.318.133-.569.297-.98.19-.528-.124-.528.374-.528.78 0 .62.17 1.17.811 1.318.677.436-.077.816-.575.985-.462.15.041 1.32-.052 1.658-.03.17-.205.123-.286.252-.268.42-.227.841-.124 1.32.056.291-.087.4-.02.665.061.303.43.365.56.642 0 .477.19.954.19 1.442 0 .436.024.837.378 1.006.144.067.503-.067.308.313-.143.293-.015.698-.015 1.031 0 .606.185.734.754.54.062-.083.205-.268.272-.314l.108-.062a.6.6 0 0 0 .072-.087c.041-.04 0-.143 0-.184s-.015-.293-.03-.314c0 0-.089-.087-.089-.107-.04-.062-.128-.04-.169-.103-.02-.02-.02-.44 0-.46l.093-.022c.076 0 .308-.103.39-.129.226-.06 0-.65 0-.856 0-.319.544-.36.667-.488.236-.226-.272-1.483-.164-1.848.144-.43.441-.538.436-1.154 0-.288-.2-.488-.2-.775v-.6c0-.652.313-.652.852-.822.287-.087.544-.287.77-.369.405-.149.8.17 1.201.17.286 0 .6-.17.851-.23.092-.089.35-.058.37-.089.066-.057.236-.139.35-.195.02-.03.77-.43.77-.205 0 .118.281.488.337.57.082.148-.113.487-.113.718 0 .2.174.282.174.452v.574c0 .17.175.426.175.683.34.344-.236 1.113.595 1.313.683.17 0 1.201 0 1.453 0 .431.057.544.452.544.431 0 .77-.488 1.118-.488.201 0 .34-.395.34-.569 0-.339.4-.626.487-.908 0-.058.57-.714.683-.745.236-.057.456-.426.456-.426.057 0 .144.314.144.37.056.138.205.4.205.513 0 .256-.349.857-.456 1.026-.113.17-.03.462-.154.657-.082.026-.252.2-.452.226h-.308c-.375 0-.205.544-.088.657.324.323-.169.692-.6.256-.266-.266-.83-.795-.883 0-.015.221.113.375.277.544.15.145-.05.488-.08.627-.032.174-.227.256-.37.282-.4 0-1.058.2-1.34.2s-.945.631-1.288.774c-.195.062-.688.258-.908.258-.319 0-.857.538-.344.538.143 0 .37-.143.513-.169.482-.113 1.052 0 1.564 0 .406 0 .437-.057.802-.174 0 0 1.206.37 1.287.37.647.148.714.117.457.8-.174.261-.318.543-.318.8 0 .088-.22.513-.313.544-.082.031-.256.401-.256.513 0 .144 0 .482-.057.57-.118.17-.282.656.082.57.057 0 .262-.226.262-.344 0-.314.307-.826.395-1.17.062-.283.087-.452.313-.595.17-.119.544-.6.601-.775.087-.114.544-.653.625-.739.232-.23.407-.483.688-.683.17-.113.395-.314.57-.344.226-.062.677-.082.882-.2.144-.082.971-.544 1.171-.339.092.083-.083.54-.139.595-.149.144-.318.232-.487.396-.083.092-.288.661-.375.805-1.54.365-.882 1.371-1.648 2.141-.743.734-.6 2.14-.43 3.16.061.344.682-.226.77-.28 0-.146.512-.52.512-.659 0-.308-.174-.456-.369-.656-.092-.088.061-.4.061-.509 0-.148.021-.544.021-.743 0-.288.257-.714.488-.914l.57-.544c.338-.057.481.288.595.513.061.118.292.2.38.283.368.374-.832 1.23-1.058 1.457-.149.143-.287 1.226-.349 1.426-.138.144-.565.031-.565.483 0 .143.196.775.257 1.006.113.508.595 1.364.595 1.821 0 .144.17.94.201 1.14.118.456.944 1.001 1.365 1.144.488.713.436 1.334.611 2.115.076.39 1.133 1.22.513 1.534-.349.175-.975.087-1.17-.23-.154-.227-1.149-.828-1.4-.997-.207-.138-.57-.626-.802-.744-.282-.138-.375-.764-.657-1.02 0-.03-.139-.232-.2-.288-.108-.144-.108-.37-.22-.488-.149-.144-.319-.425-.462-.508-.488-.37-.519-.688-.627-1.206-.03-.195-.117-.139-.349-.25-.087-.032-.508-1.145-.538-1.315-.057-.426-.227-1.053-.309-1.483-.03-.114-.174-.796-.174-.77v.456c0 .14 0 .345.031.483.113.487.195 1.088.308 1.57.144.626.595 1.402.595 2.022.206.662 1.32 1.376 1.458 2.033.205.882 1.144 1.221 1.74 1.821.086.088 1.174.857.712.714-.626-.2-1.077-.888-1.683-1.083-.533-.539-1.108-.913-1.534-1.565-.318-.493-.744-1.6-1.144-2.002-1.02-1.026-.996-2.965-.996-4.33 0-.946-.43.163-.43.507 0 .4.086.882.086 1.201 0 .94.657 1.71.857 2.51.144.6.57 1.257.883 1.801 0 .394 1.488 2.016 1.857 2.19.565.283 2.135 1.566 2.792 1.484.14.082.457.231.688.17.052 0 .57-.226.626-.109.031.021.087.308.164.345.144.024.144.051.231.17.118.168.262.507.318.764 0 .086.088.23.088.343 0 .431.451.744.538 1.083 0 .144.026.657.144.683.2.061.118.713.2.944.37.94-1.026.256-1.026.256-.827-.112-.262.4-.827.632-.092.03-.26-.093-.404-.057-.283.057-.688.708-.77 1.022-.139.456-.283-.088-.452-.114-.544-.082-.313.145-.544.375-.057.051-.2-.092-.308-.03m-18.372 25.961c0 .071-.04.144-.04.226 0 .384-.268.266-.268.231 0-.23-.154-.4-.154-.575 0-.18-.292-.462.041-.462 0 0 .421.19.421.421Zm-1.072 1.53c0 .122-.118.39-.309.348-.349-.112-.61-.574-.687-.924-.2-.81.308-1.113.54-1.729 0-.035-.042-.385-.042-.42 0-.19 0-.925.267-.653.035.037.113.078.231.078-.118.266-.077.498-.077.687 0 .232-.072.35-.119.503-.07.303.196.842.35 1.072.118.155.148.422.148.694 0 .19-.302.23-.302.343m-.426 2.31c-.03.112-.19.574-.19.73 0 .183-.303.727-.42.881-.16 0-1.073.498-1.073-.077 0-.23.158-.19.19-.348 0 0-.032-.15.04-.273.113-.184.16-.262.16-.574 0-.268.19-.648.19-.955 0-.272.333-.924.682-.924.35-.04.58.391.58.652 0 .231-.077.693-.159.887m-2.023 6.415c-.04.185-.23.457-.317.606 0 .046-.113.083-.113.083s-.149.456-.149.497c0 .118-.04.154-.072.231 0 .041-.2.158-.277.112l.041-.302c0-.082.036-.23.036-.344 0-.349.272-.847.35-1.195.04-.149.184-.19.342-.267-.035.118.12.118.16.267Zm-3.13-65.568c-1.57-.658-3.16-1.566-4.782-1.966-.806-.195-1.575-.883-2.289-1.057-.858-.2-1.458-.913-2.166-1.083-1.232-.4-2.658-1.083-3.798-1.365-.564-.144-1.2-.857-1.744-1.113l-1.642-.832c0-.57.42-.113.595.056.226.231.883.35 1.196.488.344.17.882.483 1.246.483.894.061 2.577 1.144 3.516 1.508 1.427.575 3.561 1.345 5.02 1.683 1.831.462 3.34 1.263 5.392 1.407ZM81.121 112.6c-.257 0-.637.055-.483-.258.052-.118.164-.313.226-.344.082-.056.821-.63.821-.769 0-.057.118-.545.118-.545.257-.112.488-.225.682-.338.263-.174.637-.374.801-.713-.03-.288-.426-.6-.256-.97.112-.257.882-.426 1.114-.545.2-.086.517-.2.77-.112.913.282.681 2.227 1.483 2.884.086.282.481.364.37.821-.032.174-.428.775-.196.775.164 0 .395.113.508.17.287.17-.42.482-.57.513-.2.025-.826.626-.939.512-.436-.43.344-.744-.395-1.113-.544-.256-1.232-.395-1.889-.395-.225 0-.082.252-.082.37 0 .112.37.112.483.112.195 0 1.057-.03 1.14.144.117.226-1.166.17-1.315.195-.308 0-.934.175-1.22.118-.34-.087-.802-.513-1.17-.513m-.833-2.453h-.025l-.03-.026-.058-.03h-.03v-.144l.03-.057.032-.03.056-.032h.343l.113.12h.031v.199c0 .026-.087.026-.087.026h-.18c-.046 0-.138-.026-.195-.026m.832-.714v-.349c0-.02.087-.05.087-.05h.17s.112.03.143.03l.112.087.052.14.062.03h.056v.112l-.087.14c-.03 0-.083.061-.083.061h-.254l-.032-.062h-.057l-.03-.02-.052-.032-.06-.03-.027-.03Zm.287-.856v-.026l.051-.03v-.057h.062l.031-.026c0-.03.051-.06.051-.087 0-.025.03-.062.03-.062h.17l.118.037h.082c.031 0 .118.051.118.051.057.03.17.087.17.117l-.03.057v.026h-.032l-.05.056c-.058 0-.088.062-.145.062a1 1 0 0 0-.113.025c-.092 0-.149.026-.205.026h-.05l-.063-.026h-.02l-.062-.025-.062-.03-.05-.032Zm17.838 10.597c-.369-.057-.924-.113-1.293-.18-1.057-.25-2.042-.687-3.156-.687-.067-.057-.118-.186-.313-.186-.062 0-.247-.123-.308-.123-.124-.056-.426-.308-.493-.308-.308-.122-.744-.492-1.18-.558a3.8 3.8 0 0 1-.862-.308c-.062 0-.246-.124-.37-.124-.185 0-.554-.312-.739-.375.185-.436 4.018-.99 4.455-.744 1.298.868 3.767-.43 4.567.13.072.055.246.306.436.368.185.067.247.436.375.555.118.128.056.066.184.251.062.123.185.37.247.498.061.123.247.436.247.436l.051.123c.071.18-.05.616-.05.862 0 .313-.248.554-.433.744-.374 0-.985-.308-1.365-.374m-6.973-9.57.138-.114c.087-.03.431.144.543.144.175.144.232.256.32.37.024.06.055.086.081.143.031.056.118.087.174.14.082.085.144.204.252.255.067.031.067.175.067.236-.036.113-.288-.093-.349-.144a1 1 0 0 0-.144-.112c-.169-.175-.313-.349-.575-.4l-.134-.088c-.174-.03-.199-.144-.323-.226-.05-.03-.108-.118-.05-.205m.117 1.227c.195-.113.226 0 .421.03.431.087.082.744-.082.852-.575.37-1.314.575-2.028.805-.569.17-.794.227-1.252-.09-.138 0 .221-.376.252-.376.067-.02.236-.447.257-.508.061-.113.143-.195.174-.313.144-.426 1.34-.339 1.658-.23l.17-.053s.4-.087.43-.117m-8.072 3.992v.061c0 .057-.087 0-.118.026-.056.057 0 .087-.088.15-.06.05-.087.107-.143.132-.026 0-.087.062-.087.062-.03.026-.165.17-.195.17a.8.8 0 0 1-.565.092c-.06 0-.06-.206-.06-.262 0-.113.142-.226.142-.344 0-.23.565-.575.74-.65.025 0 .168 0 .168-.033l.032-.06c0-.206.425-.027.456-.027.031.026.061.026.061.087 0 .087-.113.17-.113.283s0 .03-.06.112c0 .032-.114.145-.114.181Zm.107 2.884h.062c.031 0 .082-.144.174-.144.134 0 .34-.113.473-.138.184-.03.518-.062.723-.062.14.087.344.2.452.232l.088.081c.143.087.37.2.543.288.14.051.313.225.451.282.144.431 1.114.913 1.653 1.032.488.113 1.54.195 1.89.595.42.518.77.543 1.426.687.97.313 3.08.421 3.822 1.17.426.426.94.17 1.31.313.656.257 1.282.457 1.97.621.54.123-.2.52-.462.52-.164 0-1.37-.397-1.37-.458-.082-.313-1.309-.288-1.54-.37-1.165-.457-2.34-.374-3.474-1.139-.888-.287-1.627-.687-2.57-.918-.889-.2-1.597-1.053-2.48-1.053-.718 0-1.709-.656-2.227-1.108-.113 0-.113-.148-.256-.148h-.257c-.144 0-.113-.026-.165-.057h-.287c-.143 0 .021-.226.051-.226m15.735 3.783c0 .05-.026.137-.026.19 0 .081 0 .138-.046.138-.96.354-4.885-1.2-6.03-1.473-.98-.246-1.366-.954-2.51-.954-.626 0-1.498-1.089-2.422-1.227-.087-.22-.087-.462-.333-.519-.324-.082-.683.216-.898-.297-.083-.195-.329-.41-.524-.519-.05-.03-.323-.164-.349-.194-.056-.123-.03-.098.026-.098.118 0 .031.082.118.082h.056c.088 0 .282.061.436.061.082 0 .052-.08.196-.08h.277c.2.02.318.05.502.2 1.443.461 2.967 1.364 4.23 1.667.76.184 1.411.677 2.175.924.708.22 1.53.22 2.233.574.708.246 1.452.462 2.206.462.354 0 .744.026 1.093.026-.025.164-.133.36-.19.492-.03.082-.159.19-.189.246-.03.057-.03.242-.03.3m.497 6.987c.108-.374.262-.836.066-1.226-.066-.128 0-.174 0-.282 0-.195.216-.108.344-.154.113-.02.303-.416.4-.524 0-.353.262-.697.324-1.005a.69.69 0 0 1 .636-.483c.35 0 .431.067.672.288-.026.281-.159.892-.262 1.051-.06.103-.369.868-.369 1.047 0 .15-.24.72-.282.893 0 .441-.482 1.422-.63 1.925-.268.785-.812 1.724-.94 2.51-.047.287-.673 1.185-.673.502 0-.24.061-.456.128-.672 0-.636.324-1.4.324-2.032 0-.786-.19-1.119.262-1.838m-.406-26.802c.031-.17.123-.432.318-.432.118 0 .15.031.262.092.088.026.056 0 .138.14l.206.061v.282c0 .087-.062.17-.062.231-.03.2-.257.2-.426.138l-.343-.138-.03-.205c-.063-.088-.094 0-.063-.169m-14.425 6.244c.056-.082.713-.307.764-.343.375-.169-.339-.852.601-.852.2-.2 1.17-.4 1.488-.544.426-.195 1.088-.313 1.34-.713.312-.457.2-.596.856-.596.17-.056.113-.056.144-.118.026-.03.113-.03.113-.03.087-.02.164-.283.164-.37 0-.026.057-.169.057-.169.041-.056.143-.169.174-.226l.057-.03c.03 0 .086-.052.086-.052l.057-.03c.15-.088.457-.206.662-.319.226-.226.764-1.026 1.191-1.026.436 0 .882-.283 1.088-.683.287-.595.256-.37.738-.688.18-.113.914-.113 1.232-.25.626-.32.17-1.49.764-1.54.114 0 .227.112.32.112h.112l.025.083c.35.261.113.025.237.23.051.113.082.031.113 0h.082c.056-.03.112-.113.195-.144l.113-.112h.062v-.057h.194l.231.026.062.057v.086s.051.031.051.062c0 .113.031.051.062.113.031.02.031.226.031.282 0 .026.056.057.056.087a.57.57 0 0 1-.03.365c-.057.118-.345.092-.376.118-.056.056 0 0-.087 0H98.8c-.046 0-.118-.088-.118-.138l-.195-.145-.083-.092-.03.062c-.026.056-.057.082-.113.082-.05 0-.05.026-.05.113 0 .092 0 .205-.032.262-.082.113-.113.195-.257.225-.087.113-.344.206-.43.257-.196.113-.227.174-.227.401 0 .081.113.17.196.17.23 0 .287-.14.461-.233.113-.05.482-.05.626-.05.252 0 .37.4.57.538.2.15.395.626.395.857 0 .174.318.37.462.457 0 .174.246.313.308.37.143.143-.062.4.287.313.2-.026 1.027.143.944-.22-.056-.258-.307-.35-.307-.576 0-.17.015-.23.108-.344.056-.082.364-.2.364-.23.031-.057-.19-.396-.02-.478.081-.03.425-.236.57-.17.03 0 .055.34.055.396 0 .795.77.144.934.482.205.401.637.827 1.144.827.345 0 .601-.026.89.174.173.113.03.883.03 1.052 0 .261.174.487.2.744-.057 0-.114.113-.144.17-.03.03-.113.117-.174.117h-.145c-.087.026-.056.087-.2.087h-.225c-.206 0-.083-.204-.17-.26s-.138.117-.138.137v.175c0 .2.277.487.277.687 0 .314-.277.514-.37.801-.195 0-.338.082-.569.082s-.375.2-.262.427c.092.2.8.456.605.887-.112.226-.456.456-.605.657-.026.026 0 .343-.026.426-.025.087-.056.487-.138.282a1.7 1.7 0 0 1-.144-.65c0-.576.031-1.172.031-1.746 0-.114-.406.031-.432.031-.03.087-.225.287-.256.43-.026.17-.082.201-.282.113-.323-.143-.03-.713.082-.857.061-.056.174-.082.262-.113.194-.08.252-.369.112-.513-.23-.23 0-.682-.174-.944-.113-.175-.2.287-.2.344 0 .174-.056.37-.056.57 0 .287-.144.43-.257.626-.05.087-.174.606-.37.631-.087 0-.292 0-.374.087-.118.113-.283.195-.339.395-.174.251-.549.426-.63.687-.083.288-.083.483-.083.827 0 .175.051.395-.144.395-.308 0-.43 0-.682.175-.344.225-.662.37-1.083.4-.375 0-.83.031-1.17.031-.4 0-.827-.349-1.232-.43-.257-.058-.595-.458-.79-.515-.35-.117-.667-.575-.955-.743-.046-.026-.184-.088-.184-.088-.067-.02-.098-.082-.124-.164 0 0-.082-.118-.082-.149 0-.026-.06-.082-.06-.143-.022-.108-.109-.052-.109-.139 0 0-.144-.174-.175-.2-.056-.057.201-.144.231-.17.144-.143.34-.256.457-.456a.64.64 0 0 1 .17-.257c.061-.057.061-.057.061-.144 0-.082-.293.031-.293.031-.056 0-.056.056-.112.082 0 0-.2.056-.2.087-.03.057-.052.144-.139.144s-.144.083-.2.144c-.062.051-.119.051-.144.17 0 .03-.149.2-.175.256-.225.113-.507.37-.739.487-.194.082-.6.17-.8.195-.257.062-.426.226-.662.344-.25.118-.62-.257-.765.031 0 .026-.112.595-.112.595-.108.175-.37.175-.427.401-.117.487-.769.77-1.236.77-.103 0-.22-.026-.334-.026-.282 0-.77-.288-.25-.4.111-.03.363-.144.363-.144.252-.057.293-.314.056-.375-.194-.05-.338-.282-.594-.282-.314 0-.345.343-.658.343-.138 0-.399-.369-.487-.456-.22-.23-.087-.487-.087-.8 0-.514-.652-1.058-.395-1.428m6.194-5.762v-.026l.02-.052.062-.066s.051-.026.082-.026h.112l.063-.025c.03 0 .051-.03.087-.03h.112c.057 0 .108-.027.17-.027.082.082.287.144.287.144h-.062v.051l-.03.031c-.03 0-.057.087-.057.087-.025.031-.087.031-.138.031l-.144.026s-.056.113-.138.113h-.15l-.056-.026-.026-.03-.06-.026-.052-.03h-.03l-.052-.058Zm1.827-1.647c.102-.237.472-.406.764-.406.082.087.082.031.113.113 0 .031.056.031.056.056.032.092-.112.062-.144.118-.055.12 0 .426-.055.488-.119.108-.55.2-.714.082-.118-.056-.087-.339-.02-.45m1.016-1.228c.092-.175.318-.149.431-.118.174.025.4.057.564.144.061.03.323.113.406.143.087 0 .292.108.292.108l.051.236s.113.082.113.108c.031.15-.082.461-.195.487-.087.026-.205.087-.317.052-.119-.026-.289-.108-.432-.108-.108 0-.138-.03-.226-.087l-.082-.03s0-.027-.088-.083c-.06-.03-.143-.057-.199-.113-.062-.057-.226-.206-.257-.257-.025-.03-.082-.062-.082-.113-.03-.092-.062-.117-.062-.174 0-.026.083-.195.083-.195m5.275-2.659v-.082c0-.03.031-.087.067-.112h.077l.062-.03h.169l.082.03.092.056c.031.026.082.138.113.17a1 1 0 0 0 .12.081v.206l-.089.026c-.062 0-.087-.057-.113-.088-.03-.03-.06-.03-.123-.03a1 1 0 0 1-.138-.022h-.113l-.03-.06h-.093v-.052h-.052l-.03-.03Zm6.538 1.068a.4.4 0 0 1 .175-.097c.102-.032.318-.206.446-.18.102.025.2.052.324.052l.082-.078.02.206c-.046.072-.524.317-.626.317-.072 0-.118.057-.175.057l-.07.026-.125-.057c-.05 0-.07-.046-.07-.046-.279-.07-.058-.123.02-.2m1.395.22c.154.103.277.206.431.33l.267.225c.128.252.78.698.574 1.026-.07.124-.246.078-.389.078-.278 0-1.232-1.104-1.18-1.402 0-.102.123-.379.297-.257m4.67 4.912h.082s.041.045.072.072c.041.051.164.051.164.122 0 .073.082.181.082.252.174.324 1.242 1.925.426 2.202-.23.072-.452-.073-.452-.35 0-.05.278-.528.293-.605-.046-.025-.072-.118-.072-.2 0-.052-.174-.246-.195-.297-.082-.124-.102-.2-.128-.252-.026-.046-.026-.098-.056-.149a.4.4 0 0 0-.093-.148l-.04-.052a8 8 0 0 0-.032-.272l-.07-.025c-.058-.03.02-.253.02-.298m1.292.595c.026-.149 0-.149.155-.149.045 0 .296.175.353.201.046.097.17.271.17.271h.05v.057l.021.046s.051.051.051.071c0 .032.032.058.032.058.066.02.066.046.097.071.046.046.046.077.118.098l.051.051h.031l.092.026c0 .045.16.097.231.128.046.021.128.144.15.195.071.128.102.277.128.426.071.374-.324.6-.555.252-.098-.15-.077-.38-.128-.6-.092-.478-.369.173-.369.097v-.2c0-.298-.154-.35-.329-.524-.22-.226-.426-.272-.349-.575m5.06 20.07c.185-.056.225 0 .38.041.061.278 0 .437-.082.575-.057.103-.236.354-.236.498 0 .133.282 1.252.025 1.252-.24 0-.298-.379-.298-.579 0-.159-.143-.396-.179-.575-.123-.493-.154-1.032.39-1.212m.518 4.132c0 .061.047.097.047.143.015.128.133.21.266.293.026.041-.02.097.041.097 0 0 .067.021.067.062.021.062-.025.18-.025.216 0 .021-.057.061-.083.082a.3.3 0 0 1-.05.035l-.042.062s-.077-.035-.118-.035c-.056 0-.18-.083-.18-.123 0-.099-.02-.262-.02-.38 0-.114-.077-.196-.108-.293-.026-.139 0-.324 0-.457 0-.102.031-.077.067-.04.02.02.097.097.097.122a.6.6 0 0 1 .041.216m.673-.216c0-.04 0-.103.02-.143 0-.016.041-.04.041-.04.041 0 .083.04.083.04l.122.02c.093-.02.185-.036.226 0v.174c0 .041-.015.103-.015.144 0 .021-.04.041-.04.082a.4.4 0 0 1-.057.134h-.133l-.047-.02h-.015l-.04-.016-.043-.016v-.046l-.04-.057v-.06a.2.2 0 0 0-.022-.063c0-.015-.04-.06-.04-.082Zm5.44 7.862c.04.031.158.016.184.098.026.107-.015.57-.195.57-.154 0-.313-.083-.462-.083-.2 0-.329-.226-.462-.334-.056-.046-.056-.107-.102-.153-.04-.036-.113-.082-.134-.14-.04-.08-.015-.179 0-.276.072-.36.54-.098.647.056.082.103.36.057.226.154.031.011.287.098.298.108m-3.9-13.25c.38-.134 1.067-.308 1.364-.606.133 0 .38-.405.611-.446.221-.03.385-.082.641-.082.421 0 .893-.159 1.314-.262.246-.057.852.19.965.082.133-.139.052-.277.35-.277.4 0 .435-.05.563.318.345.118 1.673.364 1.776.836.18.703-.447 1.555-.939 1.946-1.037.821-2.192 3.674-3.669 3.11-.185 0-.719-.647-.842-.765-.39-.39-.667-.79-1.247-1.016-.338-.123-.349-.195-.349-.524 0-.323-.508-.929-.436-1.016 0-.21-.37-.457-.39-.652-.03-.297.041-.554.287-.646m1.837-2.586c.113 0 .33-.073.431-.088.144-.036.303-.174.452-.21a3 3 0 0 0 .513-.18c.051.195-.472.616-.646.652-.226.056-.61.102-.858.056-.364-.092-.107-.21.108-.23m1.745.667c0 .066.328.153.246.24-.123.124-.338.073-.456.14-.262.158-.785.266-1.083.194-.108-.02-.298-.246-.21-.39.118-.21.662-.256.908-.256.185 0 .441.072.595.072m-.21-.478a.8.8 0 0 1 .19-.21c.092-.067.195-.154.287-.22l.102.014c0-.015.016-.056.016-.056l.092-.05s.17 0 .17.014c0 .02-.02.092-.02.103 0 .041-.01.143-.01.195-.043.16-.58.297-.719.297-.073 0-.037-.03-.108-.046-.057 0-.016 0 0-.04m2.52 6.506c-.144.283-.319.683-.657.775-.863.241-.324-.283-.057-.544.113-.123.36-.667.421-.82.102-.298.447-.494.538-.843.087-.297.421-.575.683-.687.118.021-.262.616-.292.708a3.5 3.5 0 0 1-.534.75c-.185.194-.015.472-.102.661m1.96-1.24c0 .265-.144.527-.175.773-.05.401-.949.61-.949 1.011 0 .442-.293.682-.504.262-.178-.364-.138-.652.073-.959.16-.232.118-.524.19-.77.16-.472.821-.842 1.293-.873.016.19.072.364.072.555m.298 1.297c0 .386.138.596-.073.945-.102.174-.297.35-.472.472-.256.175-.436-.036-.626-.072-.318-.072.16-.718.247-.8.36-.37.75-.812.924-1.278.05.277 0 .524 0 .733m.733-2.098c0-.58.334-.82.175-1.473-.139-.595-.119-1.699.436-1.976.277 0 .647.016.985.016.308 0 .822-.175 1.134-.24.16-.037-.102.4-.128.45-.118.313-.277.565-.45.847.02.323-.453.97-.545 1.324-.139.58-.873 1.133-1.13 1.662-.056.103-.287 1.011-.41.647-.103-.328-.067-.908-.067-1.257m3.562-8.77c0-.113.16-.38.236-.416.108-.077.108-.113.256-.077.267.041.38.493.54.76-.083.036.112.112.112.148l.036.077.036.036h.077l.036.113c.035 0 .113.04.113.04s.071-.04.19.078c.036.036.077.185.077.267v.38l-.04.036-.156.117c-.113-.046-.333-.153-.45-.153-.19-.042-.524-.462-.678-.575-.04 0-.195-.19-.195-.19 0-.036-.03-.452-.113-.452h-.077Zm-.416-10.736a2 2 0 0 1-.318-.03c-.226-.129-.513-.673-.339-.945.113-.165.416-.15.534.015.046.062.154 0 .236 0-.03-.082-.123-.082-.19-.097-.133-.03.077-.068.077-.068.226 0 .39-.27.647-.204.318.077.123.666.056.862-.015.082-.62.467-.703.467m-1.14-.046c-.082.015-.297 0-.399 0-.145 0-.432.031-.544-.082-.078-.078-.22-.56-.134-.663.088-.072.38-.009.503 0 .134-.025.241-.06.308-.025.092.051.184.18.257.236.097.098.174.487.01.534m2.135-.113c.015-.067.051-.129.051-.196 0-.127.14-.395.236-.46.02-.017.036-.068.067 0 .036.05.036.143.036.225.031.18.061.272.061.384 0 .017-.03.032-.03.078 0 .097-.23.42-.329.354-.03-.016-.062-.046-.062-.083 0-.045-.03-.077-.03-.112 0-.062-.015-.124 0-.19m1.016 9.606h.298c.112 0 .184-.19.184-.302 0-.113.082-.303.231-.303h.308l.6-.272c.196 0 .462.046.488-.149.046-.112 0-.112.046-.19.031-.076.375-.759.375-.759.076 0 .38.077.38.077.148 0 .19.041.266.077l.185.071s.077 0 .113.047a.5.5 0 0 0 .19.071c.262.113.148.226.307 0 .15-.189.186-.153.186-.456.308 0 .456-.344.528-.642 0-.113.113-.04.231-.04.113 0 .262-.036.38-.036.143-.037.333.076.492.076.103 0 .226.036.334.036.035-.149.19-.262.231-.379 0-.036.15-.375.113-.457-.04-.072-.154-.072-.185-.19l-.195-.185c-.149-.04-.267.113-.344.154l-.072.072c-.04.036-.19-.04-.19-.04-.113-.032-.338-.15-.487-.186-.046-.04-.349-.154-.349-.226-.03-.117.041-.308.077-.379.113-.267.308-.529.575-.575l.143-.036c.082 0 .19-.185.19-.262 0-.082.077-.19.077-.23.155-.227.082-.755.344-1.022.072-.077.072-.077.144-.118v-.072l.118-.036c.077-.04.303-.077.303-.194 0-.155 0-.416.118-.453.041 0 .071-.076.071-.076.078-.036.226-.114.262-.149.118 0 .344-.195.344-.23 0-.037-.076-.073-.076-.114v-.113c0-.04.076-.118.076-.19 0-.19.528-.077.605-.149.073-.082.041-.118.073-.118.041 0 .153.036.153-.036 0-.08.077-.195.077-.266 0-.114.191-.155.345-.155l.107.196v.379c0 .036 0 .15-.036.185-.07.077-.154 0-.185.036-.08.041-.122.118-.23.118h-.113v.262l.035.041.041.077v.077h.339c.042 0 .113-.04.15-.04.075 0 .148-.037.23-.037 0-.19.077-.036.113-.19v-.077h.041l.071-.036s.036-.118.073-.118c.123-.036 0 .041.123-.036.031-.04.071-.113.143-.148 0 0 .19.035.267-.042v-.072h.042l.071-.04v-.232l-.07-.035-.043-.042h-.077v-.07h-.19c0-.078.113-.19.15-.269 0-.148.076-.68.16-.753.22-.227 0-.494.111-.724.036-.113.15-.185.15-.303 0-.036.107-.149.107-.19 0-.036.113-.19.154-.19.076 0 .231-.035.338-.035.154 0 .072-.078.226-.078.113 0 .267-.035.384-.035.15 0 .078-.04.15-.077.072-.036.072-.077.225-.077.078-.036.34-.298.453-.298l.302-.04c.072.07.046.148.19.148.154 0 .348 0 .451.076.047 0 .381.191.381.191s.04.112.081.112c.298.15.262.683.113 1.134.072 0 .227.196.34.196.04 0 .22.112.22.19v.184c0 .154-.072.195-.072.267 0 .041-.149.226-.22.226-.119 0-.345.19-.422.267-.082.077-.082.497-.082.611 0 .261-.108.38-.22.57-.047.035-.19.296-.267.374-.108.118-.262.19-.344.343-.293.452.236.19.236.565 0 .195-.077.38-.267.38-.42 0-.23.076-.302.384 0 .108-.196.298-.196.38-.072.334-.712.185-.98.144-.267-.03-.07.426-.04.457.27.266.384.231.076.687 0 .15-.149.34-.262.411l-.082.118c-.03.036-.072 0-.144.072-.035.046-.225.118-.225.118-.082 0-.23.071-.267.154-.077.113-.185.262-.267.374-.03.078-.41.498-.482.498l-.308.037s-.195.564-.195.6c0 .307.236.457.236.8 0 .154-.462.873-.534.605-.04-.112-.267-.374-.303-.45-.83-1.253-.754.753-.754 1.328 0 .714-.38.796-.986.826-.225.118-.717.5-.985.534-.267.036-.677-.564-.98-.262-.118.113-.19.416-.456.416-.98 0-1.97 0-2.905-.078-.04-.076-.23-.153-.344-.189 0 0-.123-.149-.159-.149-.113-.04-.38-.154-.41-.302 0-.118-.155-.19-.19-.267v-.155h-.077v-.07c0-.124-.072-.042-.072-.124 0-.03-.083-.144-.083-.18-.04-.117-.113-.534.083-.534m3.52-3.222v-.226c0-.349.103-.488.262-.8l.071-.073c.365.365.417.385.417.837l-.072.143c-.078.12-.078.037-.154.12-.042.034-.042.148-.144.148h-.236l-.072-.036-.072-.036Zm1.324-18.547-.118-.077h-.07l.014-.174c0-.062.102-.138.133-.154.026-.025.082-.103.082-.103.093-.04.236-.04.33-.04.02-.016.04 0 .04.04 0 .041.03.078.03.078l.026.041c.036.076.103-.016.103.138s-.22.19-.323.226c-.032.025-.19.025-.247.025m.292-3.135v-.093l.016-.04.02-.036v-.026l.042-.015h.153c.047.056.103.153.103.153v.098s-.03.036-.03.056c-.026.083 0 .083-.026.098l-.103-.015c-.035-.026-.118-.062-.139-.083l-.02-.02-.016-.036Zm.565 3.233v-.138l.057-.057.03-.02.047-.02h.015l.057-.02s.097-.022.138-.022c0 .041.041.062.041.102v.077l-.02.016v.041l-.02.061-.093.036-.077.042-.139-.042-.036-.02Zm3.26-2.684v-.015l.04.108c0-.026-.03-.062-.04-.093-.01.041-.022.082-.022.118v.077s-.036.056-.036.077c-.025.072.016.062-.025.097-.02.016-.093-.035-.093-.035-.02-.042-.04-.062-.04-.124v-.015l-.042-.077v-.221l.041-.036.02-.035v-.057h.078l.015.036c.046 0 .082.021.082.036v.123c0 .005.005.021.021.036m-.606 1.596v.036l.021.016v.025s.041.041.041.057c.02.061.072.138.072.195 0 .015-.036.056-.036.076l-.098.036-.036-.015-.015-.02h-.02l-.042-.02-.056-.042-.083-.072-.046-.02v-.042l-.009-.015-.062-.077-.02-.04v-.063c0-.015.041-.036.041-.036l.096-.04h.18c-.04.061.072.061.072.061m.77 1.93c-.067.072-.21.112-.252.2-.087.205-.138.215-.138.457 0 .107-.37.487-.462.616-.143.143-.102.271-.159.451a3 3 0 0 1-.169.472c-.06.195-.426.4-.61.4h-.2c-.068.036-.104.087-.18.108-.19.072.241.344-.18.452-.272 0-1.104-.072-1.032-.452.02-.144.19-.072.308-.072.144 0 .343 0 .343-.185 0-.036-.138-.194-.138-.194-.133-.02-.133-.057-.133-.185 0-.165.164-.309.201-.457-.037-.03-.166-.123-.166-.16 0-.05.037-.143.037-.143h.108c.056.02.071.02.133.031.051.021.154.077.18.097l.015.015.113.052v.041l.123.036.123.051h.108c.15 0 .365-.05.333-.195-.025-.097-.072-.22-.127-.272-.042-.036-.169-.128-.252-.128h-.113c-.195 0-.436-.149-.615-.185 0 0-.093-.066-.129-.087-.057-.036-.072-.128-.129-.128-.03 0-.05-.05-.072-.072-.102-.108.042-.25.042-.364v-.036c0-.02.077-.03.102-.052.041-.02.118-.092.15-.04 0 .02.036.04.036.04.092.088.18.293.307.303 0 0 .031-.01.087.021.046.02-.036.036.077.036h.236c.092 0 .104-.016.216-.036 0 0 .128-.02.143-.03l.073-.093c.03-.02.03 0 .03-.072v-.077c0-.196-.087-.359-.158-.504-.022-.04-.058-.113-.109-.113-.103-.015-.174-.215-.174-.323 0-.076.174.016.174.016.293.15.831.092 1.14.092.144 0 .292.036.437.036.178.036.342.021.42.164.045.128.031.344-.098.468m-.729 7.497c0 .211-.21.411-.43.411-.21 0-.653.134-.812.23-.328.216-.929.72-1.088.041 0-.04-.06-.236-.06-.236.04-.056.081-.035.081-.097 0-.016.211-.138.272-.159.113 0 .35-.17.446-.246.155-.113.268-.098.268-.309 0-.24-.657-.256-.848-.256-.22 0-.27-.328-.138-.432.175-.112.483-.23.718-.307 0-.19-.082-.19-.215-.215-.072-.016-.328-.23-.328-.309-.037-.215.584-.194.677-.194.175 0 .328.056.467.015.16-.036.426-.036.58-.036.174.036.564 0 .625.098.017.035.093.174.093.21.02.082.14.14.175.216 0 .025.061.036.061.036v.061c.036.057.118.134.14.216 0 .02.015.056.015.056s.061 0 .061.021v.097c0 .097-.123.154-.216.21a4 4 0 0 1-.298.14c-.132 0-.323.132-.539.132-.25 0-.348-.015-.348.257 0 .334.641 0 .641.35m1.683 1.677c-.03.134-.174.16-.262.252-.046.046-.159.17-.23.17-.082 0-.22-.016-.237-.093-.015-.046.18-.308.206-.36.01-.01.092-.18.092-.18.108 0 .227-.03.33-.03.101.03.076.072.101.118.052.062.026.057 0 .123m-3.663-14.882c.215-.903 1.067-.98 1.857-.98.462 0 2.028.128 2.028.672l-.109.016c0 .02-.055.235-.055.235-.016.021-.073.021-.073.036-.01.021-.03.077-.066.092-.134.093-.385-.07-.529-.07-.396 0-.734-.386-1.134-.386-.205 0-.637-.144-.8-.123-.145.015-.23.18-.042.216.693.17 1.38.492 2.063.708.498.164.236.944.636 1.211.144.077.293.293.41.328.062.021.498.241.514.272.021.042.057.108.082.15.186.18.262.23.334.507.015.051.128.18.015.195-.072.02-.123.184-.23.134a2.7 2.7 0 0 1-.529-.349c-.103-.113-.303-.237-.452-.365-.128 0-.359-.287-.416-.415-.015-.037-.035-.216-.056-.23-.18-.243-.523-.207-.806-.35-.185-.088-.4-.216-.65-.324-.146-.082-.294-.149-.329-.313-.022-.087-.134-.488-.293-.328-.047.056-.067.164-.108.262-.067.143 0 .23 0 .41 0 .113.288.273.38.328.277.165.236.545-.124.545-.323 0-.63-.2-.964-.2-.195 0-.847-.03-.704-.324.078-.144.128-.272.324-.272.128 0 .672 0 .672-.133 0-.21.042-.919-.127-1.047 0 0-.18 0-.18.015 0 .077-.324.416-.376.457-.235.123-.513-.143-.492-.38 0-.092.237-.164.33-.2m1.425 33.68c-.144-.313-.58-.257-.888-.257-.354 0-.21.318 0 .318.103 0 .247.02.35.02.728 0 .168.334-.23.396-.16.021-.495.123-.618.123-.318 0-.502-.246-.749-.287-.25-.04-.6-.026-.83-.067-.335-.082-.58 0-.54-.395-.169-.164.77-.518.95-.534.36-.045.851-.189 1.231-.189.872 0 2.006-.709 2.006.723l.15.128c-.19.062-.688.334-.832.021m-.287 5.22c-.544 0-1.083-.34-1.576-.34-.713 0-1.37-.554-2.078-.554-.164-.082-.246-.313-.37-.44-.092-.083-.354-.207-.456-.289s-.519-.374-.416-.585c.144-.308 1.037-.205 1.313-.123.596.185.74-.313 1.253-.395.19-.046.646-.416.913.082.19.354.667.354 1.016.462.75.246 1.396 2.181.401 2.181m-46.114 78.706v.077l-.036.082s-.037.073-.037.114v.117c0 .072-.077.15-.077.226s-.076.15-.19.15h-.235l-.03-.073-.083-.04-.04-.073-.032-.04v-.15l.031-.045v-.072c0-.04.041-.078.041-.114 0-.046.041-.118.041-.159 0-.035.072-.076.072-.076.046-.036.16-.113.194-.154.155.118.345.154.381.195Zm-4.63 6.03c0 .041-.118.308-.23.344-.078 0-.232-.072-.232-.072-.194-.04-.307.15-.379.19-.118.076-.35.196-.42.231-.042 0-.083.118-.083.118h-.267c-.154-.046-.112-.153-.112-.308v-.657c0-.112-.114-.538-.073-.61 0-.04.113-.077.113-.118.036-.078.036-.078.154-.119.185-.07.38.041.57.041s.497 0 .693.037c.113 0 .077.118.113.16.035.035.153-.078.153.071 0 .153 0 .117-.153.271.153.041.153.385.153.421m-.729-1.827v-.05l.027-.032v-.046c0-.026.025-.056.025-.082s.021-.082.021-.102c0-.032.061-.057.061-.057.025-.025.103-.077.128-.108.108.083.242.108.262.133v.078l-.02.056s-.026.056-.026.082v.077c0 .051-.057.102-.057.16 0 .056-.05.107-.128.107h-.159l-.03-.05-.052-.027-.025-.057-.027-.03Zm-11.772-47.202s-.174.107-.215.15c-.036.03-.139.137-.18.178-.03.031-.354.18-.42.21-.15.072-.549.612-.765.575-.067 0-.175-.137-.175-.215 0-.072-.072-.826-.03-.862.03-.036.066-.036.102-.144l.677-.179c.041 0 .293-.108.33-.108.071 0 .322-.072.395-.072.03.108.246.108.363.15.103.03 0 .317-.082.317m-2.113 2.663c-.073.067-.217.067-.319.067l-.185.113c-.072.036-.43.144-.538.144l-.21-.108-.114-.07c-.072-.037-.215-.037-.215-.146 0-.179.143-.394.215-.538.031-.072.287-.113.395-.185.144-.067.324-.283.431-.39l.323.071c.073 0 .144.145.175.216.042.067.15.175.15.246 0 .15 0 .468-.108.58m-2.048 10.361s-.036.073-.073.14c-.03.112-.138.36-.138.507 0 .108.072.211.072.288.036.107.036.287.036.426 0 .143.03.4.03.58 0 .148 0 .61-.03.724 0 .035-.25.035-.25 0 0-.114-.109-.15-.156-.293 0-.43-.205-2.915.082-3.13.324-.252.642-.103.642.394-.139.216-.18.323-.215.364m4.567 11.393c.041-.154.39-.262.431-.534.061-.308.862-.877.862-.333 0 .298 0 .632-.159.867-.04.175-.293.467-.308.626-.02.113-.215.76-.395.585-.303-.313-.564-.76-.43-1.21m2.133.543c.037.041.19.195.211.216 0 0 .036.194.036.22 0 .231-.036.467-.036.704 0 .21.174.604-.174.604-.154 0-.354.447-.39.57-.113.293-.21-.374-.21-.395-.026-.23-.18-.606-.478-.606-.112 0-.072-.214-.072-.317 0-.195.898-.996 1.113-.996m48.03-82.719c-.155-.062-.226-.226-.339-.339-.062-.056-.154-.123-.216-.21-.077-.093-.195-.17-.24-.282-.037-.083-.19-.114-.16-.242.041-.174.112-.113.251-.113.18 0 .565.483.642.636.097.057.451.211.451.38 0 .365-.144.267-.39.17m-1.986-1.976c-.015.036-.077.087-.097.113-.01.046-.01.164-.02.21-.042.098.01.34-.067.421-.072.061-.196.016-.24-.036-.032-.03-.115-.06-.155-.082-.026-.015-.057-.159-.073-.19-.02-.05-.03-.036-.05-.067v-.076c0-.052.02-.098.02-.149 0-.124.061-.226.103-.334a.5.5 0 0 1 .071-.067l.15-.066h.216l.034.056c.052.01.123.046.123.077 0 .18.046.087-.015.19m-2.735-.06c-.067-.115-.185-.207-.216-.37-.025-.257-.133-.468-.133-.725 0-.082.118-.384.175-.436.046-.047.236.21.236.21a.76.76 0 0 1 .174.436c0 .098.133.242.133.32 0 .21-.06 1.01-.369.564m-.785-.129c-.078 0-.303-.287-.303-.4 0-.226-.175-.6-.175-.837 0-.436.077-.662.304-.995.096-.144.096-.19.271-.098-.082.308.01.74.01 1.093 0 .16.098 1.237-.107 1.237m-.642-2.314c-.03.256-.123.564-.385.687-.107.052-.194.247-.272.406-.123.272-.446.066-.498-.144-.06-.292.13-.626.181-.836.112-.452.492-.82.974-.82.144.034.021.563 0 .707m-1.909.518c-.185-.103-.338-.45-.43-.61-.129-.21-.303-.36-.432-.514-.154-.174-.38-.328-.472-.539a1 1 0 0 1-.082.13c-.472.466-.677-.063-1.139-.145-.472-.078-.693-.508-1.125-.667-.204 0-.25-.277-.395-.339a3 3 0 0 1-.698-.482c-.08-.083-.332-.37-.399-.4-.226-.113-.56-.755-.56-1.032 0-.19.067-.483.272-.483.225 0 .457-.395.77-.195.144.103.21.247.318.277l.092.114c.041 0 .118.046.15.061.066.036.174.113.246.113s.204.051.23.098a.8.8 0 0 0 .195.194c.375.37.837.293 1.073.77.144.303.806.575 1.191.513.215-.04.23.124.2.303.205-.07.513 0 .713.036.34.016 1.571.882 1.571 1.216 0 .514-.884 1.355-1.289 1.581m-5.953-5.235c0 .062-.087.206-.118.252-.026.051-.077.015-.097.051-.113.175-.288.144-.452.077-.092-.03-.092-.067-.092-.174 0-.118.02-.247.031-.354.118-.24-.314-.308-.314-.534 0-.159-.21-.41-.02-.524.134-.066.292-.149.395-.226.057-.035.118-.097.154-.067.077.083.123.16.185.273.133.052.308.61.328.77.011.164 0 .292 0 .456M112 91.917c-.078.076-1.022.076-1.093.04l-.072-.076c-.195-.04-.493-.154-.688-.154-.113 0-.072-.072-.072-.154 0-.185.144-.185.267-.226.262-.113.898-.072 1.206-.072-.077.154-.077.19.031.19.16 0 .041.077.118.077.041 0 .113.072.113.072s.154-.04.19.041Zm-1.165-1.894v-.19l.03.077s.072.036.113.036h.113l.114.077.112.036c.041 0 .041.12.082.12l.15.034c.071.036.112.15.148.19.072.071.072.226.072.267v.072l-.03.076h-.191c-.149-.035-.077-.035-.113-.108-.036-.08-.118 0-.159-.158 0-.078-.107-.15-.149-.19l-.036-.077v-.036l-.035-.036v-.077h-.078l-.04-.077h-.103Zm92.537 91.66c-.232-.648-.452-1.299-.678-1.946l.432.062c0-.124.117-.247.055-.37l-.24-.179v-.119s-.124.057-.186-.123c0-.123-.24-.184-.297-.246-.185-.185-.308-.544-.308-.852v-.365c0-.178-.185-.302-.185-.486-.133-.35-.42-.965-.58-1.34-.077-.2 0-.328-.25-.41-.043 0-.864-.82-.945-.903-.65-.658-.288-.91-.288-1.77 0-.417-.205-.745-.118-1.197.036-.246.078-.863-.046-1.027-.082-.41-.492-.908-.65-1.319a1.3 1.3 0 0 1-.089-.374c-.118-.41-.452-.37.206-.615.334-.124.58.744.657.95.04.163.41.948.492.286.082-.533-.083-.903-.323-1.277 0 0-.247-.616-.247-.657 0-.247-.245-.494-.245-.704v-.615c0-.083-.088-.129-.088-.165v-.123h-.077v-.04h-.04a.9.9 0 0 1-.247-.206c-.735-17.433-10.824-18.315-20.83-19.768-4.67-2.854-9.217-4.865-13.61-5.912.431.303.836.56.97.585.682.236 1.431.631 2.18.868.514.164.976.57 1.422.856.688.457.975.863 1.432 1.72.175.113.462.23.52.395 0 .123 0 .405.055.52.112.122.462.461.57.578.17.175.518.457.58.513.164.293.456.12.456.52 0 .512.344.624.621.8.688.456.974-.113 1.436.861.114.113.282.344.396.462.113.113.287.057.287.226 0 .113 0 .174-.05.288-.062.174-.176.061-.176.343 0 .113.283.288.283.288.174.061.288.17.288.4 0 .113-.114.113-.17.226-.056.061-.175.174-.226.236-.569.575-.292-.519-.569-.575-.124 0-.35.288-.35.4 0 .062-.112.457-.112.457l-.226.057c-.288.175-.288.117-.636.41-.288.051-.175.51-.288.57-.164.056-.57-.406-.682-.462-.062 0-.57.98-.693 1.032-.277.117-.575-.288-.627-.514 0 0-.112-.4-.168-.117 0 .061-.057.404-.17.466-.513.22-.745-1.21-1.324-.405-.108.17-.05.231-.05.405.05.395-.114 1.488.511 1.488.576 0 0 .457-.112.57-.683.693-.175.636.344.743.631.12.344.976.056 1.381-.343 0-1.083-.744-1.206-.63-.282.286.237.856-.05 1.031 0 0-.17.857-.396.631-.293-.288-1.786-3.095-1.786-1.207 0 .462-.108 1.895-.626 1.782-1.2-.283-1.03-1.668-2.458-1.668-.975 0-.913-.114-.913-.858 0-.169.62.227.795.227.056-.052.35-.169.292-.396-.062-.4-.292-.118-.57-.118-.23 0 .278-.8.103-1.03-.103-.176-.569-.232-.79-.288-.226-.057-.4-.806-.749-.976-.575-.287-.339 1.032-1.263.401-.22-.113-.339-.456-.4-.8-.057-.406-.575-.575-.97-.688-.057 0-.97-.519-.97-.519-.174-.286-.63.458-.687.406-.118-.118.117-.406-.175-.58-.057-.05-.514-.739-.626-.396l-.057.345c-.293.456-.293.857-.919.975-.168 0-.574.225-.574.225 0-.63.114-1.606-.22-2.124-.35-.452-.688-.343-.868.062-.226.517-.452.626-.909.974-.63.457-.974.745-1.093 1.545-.05 0-.287.12-.4.12-.164 0-.22.111-.286.167-.17.175-.34 0-.34.406 0 .17-.112.225-.174.343-.113.226.062.344-.339.344-.23 0-.513.17-.749.17-.17 0-.282-.806-.63-.288-.057.063-.284.58-.284.58h-.343v-.293c0-.343.292-.569.406-.805.107-.113.22-.282.281-.4 0 0 .231-.17.231-.225.113-.232.401-.75.575-.919.108-.113.283-.226.34-.344 0 0 .512-.462.286-.462-.287 0-.749.061-.913-.226-.119-.17-.175-.293-.344-.118-.057.057-.236.232-.349.293-.277-.06-.345-.293-.569-.406-.227-.113-.57.17-.683.231-.57.287-.57-.4-1.089-.293-.405.062-.569.868-1.03.868-.4 0-.457.575-.863.575-.174 0-.277-.519-.338-.637-.113-.226-.462-.056-.514.118-.113.344-.4.631-.687.806-.113.052-.683.282-.683.395-.06.231.17.518.282.575l.457.231h.683c.076-.077.062-.093.062-.093s.041 0 .168-.02c.232-.062.801-.287.801.113 0 .23 0 .344-.282.344h-1.026v.287c0 .287-.237.405-.293.575l-.169.343s-.057.288-.057.345c0 .055-.518.282-.626.282-.175 0-.693.061-.862.061-.174 0-.23.174-.287.174-.175.052-.519.227-.744.227-.462 0-1.089-.227-1.54-.227-.236 0-.118-.174-.292-.174-.057 0-.113-.113-.113-.113 0-.056-.232-.23-.232-.287-.164-.23-.112-.574-.456-.574h-.282c0 .117-.067.117-.236.117h-.165c-.118 0-.23-.056-.349-.117a4.5 4.5 0 0 0-.8-.288c-.057 0-.113-.17-.113-.17l-.175-.062c-.056-.055-.174-.055-.277-.112-.123-.057-.687-.23-.687-.344s-.237-.287-.288-.518c0-2.058-.575-4.126-.575-6.138 0-.975-.569-1.719-.687-2.58.226 0 .575-.227.795-.283.236-.067.58-.175.806-.232l.056-.117h.113c.231 0 .282 0 .282.282 0 .236.237.642.462.642.175 0 .288-.175.406-.175.17 0 .394.175.57.226 0 0 .75-.519.795-.519.35-.05-.046-.395-.046-.683 0-.112.113-.342.164-.4.287-.292 1.55-.749 1.832-.46.174.168.74.518 1.032.687.626.4 1.15.061 1.832 0 .97 0 2.171-.632 2.806-1.263.114-.113.744-.287.801-.344.113-.113.914-.287 1.201-.344.513-.112.738-.805 1.488-.805.447 0 2.115.348 2.46.574.23-.344 1.774-.513 2.343-.626.226-.06.632-.349.852-.405.986-.22 1.756-.723 2.392-1.34-.969.036-1.924.124-2.874.267-.446-.389-1.119-.45-1.888-.359-.945-.123-.914-.785-.42-1.709-.104-.564-.2-1.134-.304-1.698.113-.698-.19-.817-.672-.673-.339.124-.688.247-1.037.365-1.058.4-1.2-.134-.908-1.094.487-1.24 2.556-1.277 1.452-3.71q-1.483-4.754-2.977-9.493c-.717-1.2-.985-2.294-.246-3.172 1.155-2.078 2.622-3.679 3.48-6.25 1.257-1.627 1.857-3.5 1.821-5.609 0-.118-.066-.303-.066-.426 0-.308.123-.55.184-.79v-.303c0-.242-.184-.309-.184-.549 0-.062-.24-.73-.298-.79-.185-.242-.549-.427-.61-.61 0-.125-.057-.545-.057-.675-.072-.363-.25-.969-.436-.969h-.06c-.058 0-.182-.24-.362-.302-.06 0-.424-.247-.424-.247-.366 0-1.285-.246-1.526-.364a4 4 0 0 0-.24.184h-.164l-.083.123h-.24c-.119 0-.242.057-.366.057h-.307c-.062 0-.18 0-.24-.057-.063 0-.12-.189-.12-.189v-.359c0-.062-.06-.247-.06-.303v-1.221c0-.062.06-.18.06-.18h.544c.123 0 .186-.062.308-.062 4.065-1.62 4.815-6.107 1.576-10.284-2.73-2.658-5.66-3.469-8.878-1.58-2.474 1.154-4.218 6.081-.857 9.31.102.081.406-.504.508-.422.098.087 0 .825.098.908-.03.354-.03.724-.03 1.068v.405c.03.051.05 0 .05.112 0 .083.174.376.205.457.082.262.2.55.257.72.026.117.118.143.118.282 0 .087.051.235.051.317 0 .232-.2.406-.226.55-.03.108-.292.231-.344.338-.06.118-.343.462-.343.632 0 .204-.087.574-.262.687-.43 0-.477.174-.82-.056-.319-.2-1.12-.287-1.294.143-.25.688-.426.232-.97.232-.426 0-1.145.061-1.596-.057-.374-.088-1.176-.262-1.519-.262-.375-.169-.924.174-1.227-.138-.098-.088-.949-.149-1.118-.149-.23 0-.344.087-.57.087h-.293c-.112 0-.23-.143-.287-.143-1.144-.57-3.853-.544-3.853-2.289-.232-.23-.494-.319-.8-.375-.263-.05-.745-.2-1.064-.287-.2-.057-.883-.457-1.057-.63-.282-.259-.918-.576-1.226-.689-.606-.23-1.145-1.15-1.725-1.432-.25-.123-1.57-1.35-1.683-1.35-.05-.056-.174-.174-.205-.23-.047-.083-.082-.113-.139-.17l-.026-.087c-.117-.113 0-.206-.174-.206h-.03c-.145 0 .087-.056-.114-.107 0 0-.08-.087-.112-.113-.062-.087-.144-.118-.196-.149-.06-.026-.087-.083-.174-.113-.062 0-.2-.05-.262-.05-.113-.033-.026-.033-.138.05-.082.087-.169.03-.236.144-.739-.175-1.258-.8-1.909-1.119-.596-.287-1.283-.914-1.832-1.257-2.299-1.355-4.573-2.633-6.79-3.52-.328-.144-.667.297.062.62 1.31.693 2.453 1.468 3.356 2.361-1.59.005-2.37 1.437-.564 2.55.133.852.54 1.361 1.555 1.124.744.103 1.13.544 2.232.308.78.123 1.472.61 2.053 1.622-.19.703-1.119 1.56-.565 2.114 3.007 2.49 6.204 6.282 9.376 7.093 3.371 1.37 6.153 3.017 10.115 4.105.431.138.677.487.497 1.31-.359 1.38-.554 2.682-.497 3.857-1.58.498-1.433 1.1-4.716 1.488-1.14.565-2.52 1.124-3.787 1.683-.519.073-.745.412-.314 1.31-1.154.39-2.36.995-3.52 1.385-.308-.79-.575-1.78-.883-2.566-.02-1.57-.662-3.222-1.242-4.855-.159-.375.206-1.052.626-.559.277.477.395 1.032.683 1.504.831-1.469-1.473-3.038-2.18-5.302-1.279-3.197-3.11-4.89-5.215-5.906-.41-.339-.83-.667-1.237-1 .225-.935-.236-1.869-1.124-2.803-.205-.072-.45-.205-.364.564-.487.1-.877-.333-1.247-1a21 21 0 0 1-.057-.554c-.128.061-.25.118-.374.185-.323.123-.529-.042-.559-.622-1.109-.63-1.74-.728-2.418-.872-1.847-1.539-2.75-.569-4.15-.959-1.048-1.833-2.11-3.664-3.322-5.486-.302-.298-.42-.093-.374.616.005 1.513.03 3.022.57 4.3.087.277-.22.647-.657.375-.508-1.104-.975-1.93-1.417-2.562.082 1.012.18 2.022.267 3.028-.852.323-1.334.945-1.59 1.74-3.326 1.052-2.987 4.726-9.566 8.313-.796-.03-1.735.242-2.515.873-1.8 1.427-5.316 1.56-5.235 5.307.308 1.051-.44 3.54 1.961 3.443 1.113-.42 2.017-.6 1.417.816-.668.702-.504 1.118.061 1.411.19.55.37 1.098.554 1.652 5.625 3.45 10.644 4.548 16.53 7.652-1.77 5.234-.61 11.623-2.372 16.063-1.282 2.638-1.744 5.522-1.4 8.642-.144.728-.206 1.462.308 2.191-.056 1.585-.134 3.166.482 4.747-2.864.35-5.527 1.421-8.349 1.765-2.489.307-5.143-.123-7.6.184-1.592-.06-2.952 1.094-4.069 3.47-1.094.75-.92 2.063-.55 3.47.405 3.606-.77 7.338-1.155 11.007-.405 1.344-.308 2.678.914 4.018 1.134 2.678 2.94 5.78 3.407 8.036l3.284 2.914c.888 1.223 1.627 1.14 2.192-.24 1.375-2.74 1.826-7.077.482-7.052-.667-1.8-1.54-2.837-2.853-2.196-.483.088-.97.237-1.283-.672-.852-1.299-1.052-2.022-.6-2.19.641-1.274-.657-2.439-.98-3.65-.144-2.422.205-6.189 1.036-8.303.565-1.452 1.745-2.176 3.166-2.406 7.91-.447 11.685 1.846 18.06 1.215.112.576 1.062.576 2.14.49-.247 6.45-1.95 12.29-2.92 18.436.06 1.684.78 2.756.183 5.05-1.554 5.296-2.976 12.296-6.573 14.24-2.699 2.29-5.014 2.23-6.389 7.847h8.211c.37-1.257 2.135-2.15 1.098-3.772-.344-1.785 1.981-2.289 3.161-2.8 1.12.081 1.586-.402 1.396-1.458.144-.976.293-1.95.431-2.92 1.298-4.528 2.597-9.043 3.89-13.57.94-1.298 1.735-2.637 1.53-4.259 2.226-6.004 5.49-15.964 6.691-18.012q2.462.209 4.931.426c-.025.2-.04.405-.066.605-1.067-.098-2.145-.2-3.223-.303-1.868.934-.928 1.227-.549 1.642 1.904.693 3.515 2.048 5.717 2.074.185-.714 1.893-.55 2.735.303 1.201.415 3.675.836 3.598-.668.61-.898.241-1.79.37-2.679 8.123.031 14.984 2.721 24.396-1.457 1.441-.559 1.503.538 1.647 1.457-.272 1.863.688 3.244 1.027 4.865.39 1.586.292 3.47 1.165 4.748.64 3.227-.96 4.865 1.944 9.678 1.643 3.403 1.991 7.702.298 9.976-2.084 2.495-4.178 4.988-6.26 7.488-1.017.81-2.033 1.616-3.05 2.427-1.82.616-3.95 1.71-5.47 1.832-1 1.457-1.62 2.92-2.135 4.377h8.822c.38-.872.79-1.724.672-2.92q1.494-.146 2.987-.303c3.212-5.819 8.313-10.222 12.957-14.969.868-.873.771-2.068-.302-3.592a1967 1967 0 0 1-1.457-7.785c-1.17-4.182 1.431-6.764 3.812-8.704 1.427-1.154 2.787-2.253 3.783-3.833q1.742 2.13 3.474 4.254c2.324 2.782 3.566 5.99 6.994 8.34 1.74 1.575 3.193 4.11 4.444 7.307.75 1.381 1.181 2.756 1.28 4.136-.274 1.91.065 4.254-.212 6.17-.246 1.795-1.118 3.165-1.37 4.966-.945 1.104-3.038 1.914-3.988 3.023-1 1.185-1.524 2.422-1.858 3.848h7.734q1.67-1.822.421-2.914c-1.334-.893.565-1.344 1.832-1.888.95.425.817-.873.904-1.828.174-6.527.328-13.066.492-19.592.873-1.202-.349-2.054-1.457-2.92-1.437-2.787-4.27-5.02-5.707-7.796-.918-1.786-.862-4.177-1.355-5.897.754-5.398.483-10.792-.056-16.185.015-.36.097-.585.54.118.645.954 1.246 2.042 2.072 2.494a650 650 0 0 1 1.642 3.711c.133 1.55.411 2.985 1.037 4.202.364 2.135 1.6 3.915 2.792 5.722-.118 3.218 1.591 4.624 2.381 6.933.22-.487.441-.97.671-1.462 1.454 1.811 2.92 3.613 4.373 5.424.18.493.15 1.407 1.155.242.216-.473.482-.8 1.16-.124.544.18 1.093.365 1.642.544.451-.195.554-.502.493-.852"/></g></svg>