<svg xmlns="http://www.w3.org/2000/svg" xmlns:xlink="http://www.w3.org/1999/xlink" xmlns:inkscape="http://www.inkscape.org/namespaces/inkscape" version="1.1" width="200" height="200" viewBox="0 0 200 200">
<defs>
<clipPath id="clip_1">
<path transform="matrix(1,0,0,-1,0,200)" d="M0 200H200V0H0Z"/>
</clipPath>
</defs>
<g inkscape:groupmode="layer" inkscape:label="Layer 1">
<path transform="matrix(1,0,0,-1,86.168,103.3437)" d="M0 0-23.864 .052-23.021-3.005V-8.86H-3.657L-3.652-.512H0Z" fill="#263a7f"/>
<path transform="matrix(1,0,0,-1,62.1018,102.5705)" d="M0 0 .194-.545H24.066V0Z" fill="#263a7f"/>
<path transform="matrix(1,0,0,-1,146.4404,49.285203)" d="M0 0 .645 .676 .648-1.905 1.595-2.061 1.61 1.318 2.561 2.174 2.508-2.203 3.417-2.378 3.404 2.754 4.524 3.792 4.553-2.63 5.268-2.717 5.288 6.263-.554 1.378V-1.635L0-1.747Z" fill="#263a7f"/>
<path transform="matrix(1,0,0,-1,160.8281,38.025896)" d="M0 0-12.619-3.101 18.701-3.137Z" fill="#263a7f"/>
<path transform="matrix(1,0,0,-1,136.1455,49.746599)" d="M0 0-22.256 .203-22.298-2.157-25.327-2.201-25.285 .261-27.393 .24-55.073-5.669 36.076-5.542Z" fill="#263a7f"/>
<path transform="matrix(1,0,0,-1,113.4385,48.291505)" d="M0 0H-.468V.655H-1.645V-.019H-2.203V-3.154H0Z" fill="#263a7f"/>
<path transform="matrix(1,0,0,-1,167.5195,64.974109)" d="M0 0V8.211L-80.475 8.137V.07H-71.748V6.343H-67.541V.302H-57.907V6.343H-53.85V.223H-42.342V6.275H-38.282V.223H-28.881V6.275H-24.969V.07H-13.84V6.267L-9.781 6.29-9.807 0Z" fill="#263a7f"/>
<path transform="matrix(1,0,0,-1,183.793,64.82179)" d="M0 0H-15.853L-15.868-1.111 0-1.12Z" fill="#263a7f"/>
<path transform="matrix(1,0,0,-1,0,200)" d="M183.346 133.677H168.04399V130.319H183.346Z" fill="#263a7f"/>
<path transform="matrix(1,0,0,-1,86.6357,70.0576)" d="M0 0 80.854 .298V4.493L0 4.571Z" fill="#263a7f"/>
<path transform="matrix(1,0,0,-1,171.0937,50.262697)" d="M0 0H-2.689L-2.724 4.672 0 4.703ZM-6.707 0H-9.394L-9.422 4.672-6.707 4.703ZM-13.438 0H-16.133L-16.166 4.672-13.438 4.703ZM-18.766 7.29-18.848-1.451 3.034-4.928-3.129-7.839V-13.104H3.888V7.125Z" fill="#263a7f"/>
<path transform="matrix(1,0,0,-1,183.1973,70.3965)" d="M0 0-96.178-.507V-12.318H-89.363L-89.284-4.833H-86.446V-12.318H-84.053V-4.88H-81.681L-81.734-12.318H-78.966L-78.899-4.816-76.193-4.833V-12.446H-58.429L-58.453-4.859-56.361-4.833V-12.446H-53.667V-4.833L-51.808-4.804-51.783-12.446H-33.216L-33.244-4.859H-30.943L-30.906-12.446H-29.065L-29.116-4.859H-27.245L-27.277-12.446H-24.39L-24.401-4.833-22.079-4.847-22.045-12.446 0-12.318Z" fill="#263a7f"/>
<path transform="matrix(1,0,0,-1,0,200)" d="M93.243 112.211H108.173999V116.463H93.243Z" fill="#263a7f"/>
<path transform="matrix(1,0,0,-1,0,200)" d="M149.278 112.211H162.593V116.463H149.278Z" fill="#263a7f"/>
<path transform="matrix(1,0,0,-1,0,200)" d="M123.41 112.211H132.72V116.463H123.41Z" fill="#263a7f"/>
<path transform="matrix(1,0,0,-1,82.8501,113.9922)" d="M0 0H9.037V2.908H16.567V0H22.799L22.853 2.908H30.539V0H39.916V8.805H0Z" fill="#263a7f"/>
<path transform="matrix(1,0,0,-1,0,200)" d="M82.784 95.359H122.76599V95.958H82.784Z" fill="#263a7f"/>
<path transform="matrix(1,0,0,-1,0,200)" d="M136.451 95.359H175.664V95.958H136.451Z" fill="#263a7f"/>
<path transform="matrix(1,0,0,-1,0,200)" d="M123.162 85.407H126.055V91.726H123.162Z" fill="#263a7f"/>
<path transform="matrix(1,0,0,-1,0,200)" d="M123.513 92.173H125.258V98.797H123.513Z" fill="#263a7f"/>
<path transform="matrix(1,0,0,-1,0,200)" d="M134.162 85.407H136.897V91.726H134.162Z" fill="#263a7f"/>
<path transform="matrix(1,0,0,-1,0,200)" d="M134.712 92.173H136.10501V98.522998H134.712Z" fill="#263a7f"/>
<path transform="matrix(1,0,0,-1,0,200)" d="M125.555 92.986H134.316V94.437H125.555Z" fill="#263a7f"/>
<path transform="matrix(1,0,0,-1,134.3271,107.3936)" d="M0 0H-8.925V-.434H-7.996V-1.45H-.599V-.434H0Z" fill="#263a7f"/>
<path transform="matrix(1,0,0,-1,0,200)" d="M126.483 89.441H133.394V90.669H126.483Z" fill="#263a7f"/>
<path transform="matrix(1,0,0,-1,0,200)" d="M126.483 87.681H133.394V88.916H126.483Z" fill="#263a7f"/>
<path transform="matrix(1,0,0,-1,0,200)" d="M126.483 85.929H133.394V87.164H126.483Z" fill="#263a7f"/>
<g clip-path="url(#clip_1)">
<path transform="matrix(1,0,0,-1,176.126,104.1621)" d="M0 0V-.517C0-.517 6.015-1.107 12.658-.517V0C12.658 0 8.552 .275 0 0" fill="#263a7f"/>
<path transform="matrix(1,0,0,-1,137.2695,113.9922)" d="M0 0H14.555L14.579 2.813 22.101 2.784V0H25.324V2.813L32.304 2.784V0H38.395V8.805H0Z" fill="#263a7f"/>
<path transform="matrix(1,0,0,-1,176.126,105.1875)" d="M0 0V-8.805C0-8.805 5.939-10.228 11.99-8.805V0C11.99 0 5.646-.549 0 0" fill="#263a7f"/>
<path transform="matrix(1,0,0,-1,43.5879,77.8276)" d="M0 0H-13.852L-30.927-4.164H17.869Z" fill="#263a7f"/>
<path transform="matrix(1,0,0,-1,24.7446,90.7769)" d="M0 0V.314C0 .314-.042 3.197 2.727 3.111 2.727 3.111 4.868 3.272 5.037 .252V0H9.847V.314C9.847 .314 9.847 3.463 12.546 3.436 12.546 3.436 14.864 3.417 14.802 .252V0H19.125V.465C19.125 .465 19.257 3.664 21.967 3.436 21.967 3.436 24.224 3.213 24.108 .252V0H33.361L33.935 1.184V7.102H-7.137V0Z" fill="#263a7f"/>
<path transform="matrix(1,0,0,-1,13.1245,106.8809)" d="M0 0H6.995V11.298H4.483Z" fill="#263a7f"/>
<path transform="matrix(1,0,0,-1,0,200)" d="M13.125 87.177H20.119999V92.528H13.125Z" fill="#263a7f"/>
<path transform="matrix(1,0,0,-1,55.1841,95.8804)" d="M0 0V-10.873H6.996L3.495 0Z" fill="#263a7f"/>
<path transform="matrix(1,0,0,-1,0,200)" d="M55.184 87.299H62.179998V92.652H55.184Z" fill="#263a7f"/>
<path transform="matrix(1,0,0,-1,0,200)" d="M20.687 96.834H54.701V97.479H20.687Z" fill="#263a7f"/>
<path transform="matrix(1,0,0,-1,0,200)" d="M20.687 87.796H54.701V96.351H20.687Z" fill="#263a7f"/>
<path transform="matrix(1,0,0,-1,86.168,88.7808)" d="M0 0H-26.835L-27.715-1.903H1.174Z" fill="#263a7f"/>
<path transform="matrix(1,0,0,-1,84.2051,91.7104)" d="M0 0H-24.782V-3.69L-22.257-10.539H-19.281L-19.272-3.459H-15.521V-10.539H-11.785V-3.534H-8.049V-10.539H-4.731V-3.594L-1.454-3.571V-10.486H0V-10.48H1.963V0Z" fill="#263a7f"/>
<path transform="matrix(1,0,0,-1,0,200)" d="M24.703 108.947H17.608V108.409H24.703Z" fill="#263a7f"/>
<path transform="matrix(1,0,0,-1,0,200)" d="M34.576 108.947H29.762001V108.409H34.576Z" fill="#263a7f"/>
<path transform="matrix(1,0,0,-1,0,200)" d="M43.857 108.947H39.502V108.409H43.857Z" fill="#263a7f"/>
<path transform="matrix(1,0,0,-1,0,200)" d="M48.853 108.409H58.638V108.947H48.853Z" fill="#263a7f"/>
<path transform="matrix(1,0,0,-1,173.0986,103.2822)" d="M0 0V7.667C0 7.667 .215 10.311 2.417 10.542 2.479 10.544 2.54 10.547 2.6 10.55 4.975 10.654 5.252 8.311 5.288 7.899V0ZM-9.832 19.658V15.184H-24.395V19.658H-39.841V15.106H-50.218V19.216H-64.399V14.881H-80.301L-80.38 19.658H-86.045V13.46L-85.323 12.282H-86.045V-.123H-80.38V11.521H-77.69V-.123H-75.152V11.373H-72.388V-.123H-69.549V11.373H-66.49V-.123H-49.92V2.414H-47.531V-1.991H-46.929V9.287C-46.929 9.287-46.635 12.289-43.126 12.34-43.126 12.34-39.696 12.488-39.543 9.287V-1.991H-38.792V2.261H-36.704L-36.647-.322H-25.837L-25.804 11.596H-22.897V-.349L-20.282-.322V11.596H-17.592V-.396L-15.207-.371V11.521H-12.368V-.445L-.025-.371H5.288L10.099-.421V19.658Z" fill="#263a7f"/>
<path transform="matrix(1,0,0,-1,48.853,91.835)" d="M0 0V-9.587H-4.984V0H-9.307V-9.587H-14.262V0H-19.071L-19.035-9.587H-24.108V0H-31.245V-3.421H-28.167V-10.213H-24.273-24.108-19.035-14.262-9.307-4.984 0 .533 5.979V-3.562H9.826V0Z" fill="#263a7f"/>
<path transform="matrix(1,0,0,-1,59.6221,95.9399)" d="M0 0 4.604-6.367H2.393Z" fill="#242b62"/>
<path transform="matrix(1,0,0,-1,62.168,102.6328)" d="M0 0 .193-.544H2.677L2.305 0Z" fill="#242b62"/>
<path transform="matrix(1,0,0,-1,65.0063,103.3477)" d="M0 0 1.607-2.678V-8.914H-1.797V-3.129L-2.607 0Z" fill="#242b62"/>
<path transform="matrix(1,0,0,-1,173.3535,55.7612)" d="M0 0 1.687-1.68V-8.486H-5.372L-5.445-2.398Z" fill="#242b62"/>
<path transform="matrix(1,0,0,-1,145.5508,49.616197)" d="M0 0-4.004 .51 2.442 8.002 34.515 7.924 29.718 4.668 29.695 6.933 6.249 7.061-.012 1.649Z" fill="#242b62"/>
<path transform="matrix(1,0,0,-1,124.0547,88.1484)" d="M0 0 3.07-2.76H15.55L9.252 4.558V0Z" fill="#242b62"/>
<path transform="matrix(1,0,0,-1,93.5825,88.4966)" d="M0 0 3.471-2.762H22.484L15.038 4.555V0Z" fill="#242b62"/>
<path transform="matrix(1,0,0,-1,149.333,88.1484)" d="M0 0 4.206-2.76H23.121L14.146 4.558V0Z" fill="#242b62"/>
<path transform="matrix(1,0,0,-1,81.5112,55.7612)" d="M0 0 5.177-2.75V-.758H86.47V-1.853L90.533 0Z" fill="#242b62"/>
<path transform="matrix(1,0,0,-1,17.4097,84.2856)" d="M0 0-4.728 1.988H44.229L41.799 0V.993H0Z" fill="#242b62"/>
<path transform="matrix(1,0,0,-1,20.6123,95.8677)" d="M0 0 3.653-6.196H0Z" fill="#242b62"/>
<path transform="matrix(1,0,0,-1,24.9307,103.6494)" d="M0 0 1.359-2.726V-8.555H-4.266V0Z" fill="#242b62"/>
<path transform="matrix(1,0,0,-1,0,200)" d="M86.553 108.457H59.022005V109.029H86.553Z" fill="#242b62"/>
<path transform="matrix(1,0,0,-1,20.665,102.5215)" d="M0 0V-.648H4.133L3.77 0Z" fill="#242b62"/>
<path transform="matrix(1,0,0,-1,136.4307,104.043)" d="M0 0H2.464L3.125-.599H0Z" fill="#242b62"/>
<path transform="matrix(1,0,0,-1,137.2578,105.1875)" d="M0 0H2.611L6.583-3.979 8.208-5.595H9.401V-8.805H0Z" fill="#242b62"/>
<path transform="matrix(1,0,0,-1,70.3623,88.7808)" d="M0 0 2.161-1.903H-11.931L-11.054 0Z" fill="#242b62"/>
<path transform="matrix(1,0,0,-1,0,200)" d="M190 52.939H114.595V51.522H190Z" fill="#8a3533"/>
<path transform="matrix(1,0,0,-1,0,200)" d="M10.396 51.522H85.79201V52.939H10.396Z" fill="#8a3533"/>
<path transform="matrix(1,0,0,-1,17.9956,138.8184)" d="M0 0C.64-.101 1.162-.147 1.579-.147 2.777-.147 3.715 .18 4.38 .82 5.045 1.465 5.376 2.337 5.376 3.438 5.376 4.177 5.229 4.779 4.935 5.263 4.646 5.742 4.232 6.093 3.707 6.314 3.182 6.535 2.335 6.643 1.183 6.643 .832 6.643 .438 6.636 0 6.614V2.99L.013 1.698C.033 1.239 .042 .885 .042 .639 .042 .458 .025 .241 0 0M0 7.481C.344 7.466 .657 7.451 .942 7.451 2.302 7.451 3.269 7.692 3.852 8.174 4.438 8.651 4.736 9.343 4.736 10.253 4.736 11.036 4.488 11.631 3.992 12.053 3.504 12.47 2.72 12.676 1.645 12.676 1.174 12.676 .657 12.636 .096 12.548 .033 11.713 0 10.462 0 8.779ZM3.394 7.192C4.86 7.1 5.914 6.759 6.563 6.18 7.207 5.598 7.529 4.787 7.529 3.763 7.529 2.461 6.984 1.337 5.901 .393 4.819-.552 3.434-1.024 1.761-1.024L.951-.998C.272-.967-.305-.952-.772-.952-1.12-.952-1.532-.965-2.028-.99L-2.88-1.024V-.562C-2.451-.357-2.206-.2-2.12-.095-2.049 .018-2 .196-1.987 .448-1.942 1.259-1.917 2.181-1.917 3.213V9.572C-1.917 11.278-1.975 12.242-2.099 12.467-2.248 12.73-2.616 12.868-3.194 12.868H-3.884V13.509H-3.037L-2.099 13.47C-1.607 13.449-1.227 13.433-.946 13.433-.521 13.433 .327 13.458 1.595 13.498L3.087 13.536C4.257 13.536 5.133 13.333 5.707 12.92 6.439 12.405 6.802 11.672 6.802 10.718 6.802 9.94 6.546 9.259 6.038 8.668 5.521 8.081 4.636 7.585 3.394 7.192" fill="#263a7f"/>
<path transform="matrix(1,0,0,-1,29.8311,125.9502)" d="M0 0V.641C1.401 .593 2.413 .564 3.046 .564 3.72 .564 4.695 .593 5.988 .641V0H5.244C4.608 0 4.216-.126 4.091-.37 3.959-.619 3.897-1.725 3.897-3.701V-7.705C3.897-9.172 3.976-10.184 4.133-10.755 4.298-11.327 4.711-11.81 5.377-12.21 6.046-12.602 6.939-12.798 8.05-12.798 9.203-12.798 10.169-12.589 10.963-12.163 11.513-11.874 11.905-11.42 12.162-10.801 12.41-10.188 12.538-9.017 12.538-7.294V-3.444C12.538-1.658 12.456-.644 12.294-.391 12.133-.128 11.695 0 10.972 0H10.439V.641C11.852 .593 12.749 .564 13.133 .564 13.753 .564 14.521 .593 15.443 .641V0H14.745C14.208 0 13.856-.147 13.7-.442 13.55-.728 13.476-1.741 13.476-3.485V-7.321C13.476-9.068 13.385-10.246 13.216-10.854 13.038-11.465 12.729-12.013 12.261-12.503 11.802-12.995 11.191-13.38 10.435-13.666 9.662-13.953 8.757-14.098 7.728-14.098 6.658-14.098 5.719-13.97 4.913-13.716 4.116-13.457 3.508-13.14 3.108-12.768 2.702-12.394 2.406-11.937 2.228-11.393 2.045-10.854 1.955-9.933 1.955-8.635L1.975-6.691V-3.58C1.975-1.657 1.922-.583 1.806-.35 1.69-.12 1.339 0 .731 0Z" fill="#263a7f"/>
<path transform="matrix(1,0,0,-1,61.9692,128.9971)" d="M0 0-.074 1.815C-.687 2.219-1.319 2.518-1.984 2.718-2.649 2.916-3.339 3.016-4.058 3.016-5.897 3.016-7.372 2.454-8.476 1.334-9.587 .223-10.133-1.275-10.133-3.146-10.133-4.46-9.856-5.631-9.293-6.66-8.731-7.687-7.934-8.501-6.901-9.098-5.864-9.695-4.773-9.997-3.62-9.997-2.711-9.997-1.806-9.89-.913-9.681-.252-9.526 .421-9.197 1.095-8.695L1.306-8.904C1.17-9.216 1.033-9.538 .913-9.856 .115-10.253-.687-10.547-1.492-10.745-2.298-10.947-3.112-11.051-3.93-11.051-5.599-11.051-7.075-10.725-8.343-10.08-9.612-9.431-10.592-8.54-11.265-7.398-11.947-6.257-12.294-4.973-12.294-3.534-12.294-2.096-11.947-.811-11.257 .321-10.571 1.454-9.604 2.334-8.343 2.958-7.091 3.576-5.55 3.89-3.716 3.89-2.752 3.89-1.632 3.731-.343 3.421 .293 3.269 .818 3.161 1.219 3.082 .913 2.355 .736 1.328 .694 0Z" fill="#263a7f"/>
<path transform="matrix(1,0,0,-1,71.9946,134.1064)" d="M0 0H5.137L2.57 6.142ZM5.521-.835H-.385L-1.07-2.474C-1.529-3.571-1.756-4.23-1.756-4.479-1.756-4.634-1.715-4.747-1.632-4.819-1.546-4.884-1.331-4.941-.984-4.979L0-5.093V-5.736C-.657-5.689-1.393-5.664-2.211-5.664-3.186-5.664-4.05-5.689-4.79-5.736V-5.093L-4.484-5.08C-4.009-5.069-3.694-5.016-3.562-4.934-3.417-4.846-3.273-4.642-3.121-4.303-2.632-3.325-2.141-2.267-1.632-1.127L1.169 5.23C1.917 6.919 2.426 8.146 2.707 8.906H3.396L8.566-3.106C8.914-3.929 9.141-4.417 9.256-4.586 9.376-4.757 9.508-4.873 9.657-4.945 9.81-5.016 10.149-5.063 10.67-5.093V-5.736C9.781-5.689 8.938-5.664 8.141-5.664 7.388-5.664 6.393-5.689 5.145-5.736V-5.093L6.157-5.028C6.517-5.004 6.732-4.962 6.798-4.919 6.901-4.842 6.955-4.747 6.955-4.627 6.955-4.512 6.847-4.189 6.644-3.671Z" fill="#263a7f"/>
<path transform="matrix(1,0,0,-1,99.207,132.90039)" d="M0 0V-2.507L.012-3.945C.012-4.846 .021-5.507 .042-5.918 1.041-5.998 2.107-6.035 3.243-6.035 4.008-6.035 4.647-5.998 5.165-5.933 5.5-5.887 5.855-5.805 6.228-5.664 6.404-5.065 6.574-4.312 6.752-3.424H7.426C7.243-4.914 7.152-5.907 7.152-6.414L7.17-6.87C6.388-6.937 5.616-6.97 4.859-6.97L3.261-6.942C1.487-6.896 .189-6.87-.641-6.87-1.439-6.87-2.497-6.896-3.823-6.942V-6.299H-3.5C-2.91-6.299-2.539-6.242-2.381-6.125-2.232-6.01-2.129-5.73-2.075-5.308-2.025-4.877-2.001-3.935-2.001-2.47V3.136C-2.001 4.06-2.025 4.809-2.066 5.395-2.108 5.978-2.158 6.329-2.203 6.437-2.266 6.552-2.331 6.634-2.431 6.7-2.525 6.758-2.815 6.819-3.307 6.868L-4.096 6.95V7.591H-2.988L-1.906 7.552C-1.302 7.531-.843 7.515-.53 7.515L3.392 7.58 5.252 7.591C5.879 7.598 6.524 7.571 7.17 7.515 6.913 6.709 6.772 5.655 6.739 4.362H6.045C6.045 5.109 6.008 5.735 5.934 6.229 5.132 6.53 4.144 6.68 2.975 6.68 2.041 6.68 1.061 6.634 .042 6.556 .049 5.922 .042 5.283 .021 4.639L0 3.071V1.002C.672 .955 1.272 .936 1.789 .936 3.408 .936 4.326 .989 4.541 1.101 4.752 1.212 4.859 1.563 4.859 2.144V2.812H5.553C5.512 1.781 5.483 .965 5.483 .349 5.483-.296 5.512-1.061 5.553-1.936H4.859V-1.341C4.859-.692 4.735-.296 4.479-.147 4.227 0 3.326 .075 1.777 .075 1.21 .075 .615 .052 0 0" fill="#263a7f"/>
<path transform="matrix(1,0,0,-1,116.1289,120.8398)" d="M0 0H.596C.661-.728 .913-1.294 1.343-1.69 1.772-2.101 2.31-2.299 2.954-2.299 3.596-2.299 4.137-2.101 4.562-1.69 4.996-1.294 5.243-.728 5.314 0H5.905C5.848-1.075 5.632-1.877 5.26-2.401 4.731-3.142 3.96-3.513 2.954-3.513 1.943-3.513 1.174-3.146 .646-2.408 .261-1.872 .053-1.068 0 0M8.966-14.17C8.868-14.743 8.818-15.328 8.818-15.914 8.818-16.542 8.868-17.247 8.966-18.03 8.058-18.385 7.041-18.673 5.9-18.882 4.756-19.099 3.665-19.208 2.623-19.208 1.021-19.208-.389-18.894-1.604-18.263-2.818-17.633-3.76-16.758-4.414-15.636-5.058-14.514-5.389-13.245-5.389-11.821-5.389-10.352-5.042-9.042-4.339-7.897-3.637-6.749-2.662-5.856-1.409-5.226-.157-4.584 1.431-4.268 3.351-4.268 4.137-4.268 4.855-4.315 5.517-4.418 6.174-4.521 7.033-4.727 8.103-5.033L8.966-5.27C8.79-5.99 8.646-6.996 8.538-8.294H7.893V-7.616C7.893-6.951 7.84-6.562 7.731-6.441 7.529-6.225 6.988-5.955 6.108-5.629 5.232-5.307 4.223-5.142 3.099-5.142 1.091-5.142-.438-5.687-1.5-6.761-2.657-7.931-3.235-9.477-3.235-11.401-3.235-13.253-2.715-14.817-1.67-16.079-.446-17.58 1.227-18.328 3.339-18.328 4.446-18.328 5.636-18.086 6.925-17.601 6.963-17.03 6.988-16.414 6.988-15.767 6.988-14.931 6.972-14.447 6.947-14.319 6.913-14.196 6.868-14.115 6.803-14.075 6.728-14.035 6.367-13.988 5.731-13.938L4.521-13.832V-13.191C6.086-13.258 7.244-13.295 7.992-13.295 8.648-13.295 9.216-13.258 9.683-13.191V-13.701Z" fill="#263a7f"/>
<path transform="matrix(1,0,0,-1,133.3369,121.2393)" d="M0 0C.31 0 .569-.105 .78-.322 .994-.543 1.106-.808 1.106-1.109 1.106-1.423 .99-1.687 .78-1.907 .564-2.128 .296-2.233 0-2.233-.303-2.233-.571-2.128-.786-1.907-1.006-1.687-1.107-1.423-1.107-1.109-1.107-.808-1.006-.543-.794-.322-.575-.105-.312 0 0 0M-3.138-17.96H-2.488C-1.856-17.96-1.477-17.809-1.353-17.494-1.224-17.193-1.163-15.728-1.163-13.098V-9.637C-1.163-6.912-1.22-5.417-1.323-5.135-1.434-4.855-1.766-4.711-2.308-4.711H-3.138V-4.07C-1.997-4.118-.882-4.146 .223-4.146 1.145-4.146 1.979-4.118 2.726-4.07V-4.711H1.937C1.454-4.711 1.145-4.775 1.024-4.891 .904-5.007 .825-5.302 .809-5.767 .776-6.494 .76-7.796 .76-9.655V-13.18C.76-15.829 .809-17.284 .934-17.557 1.049-17.824 1.42-17.96 2.05-17.96H2.726V-18.604C1.889-18.557 .979-18.531-.014-18.531-1.163-18.531-2.212-18.557-3.138-18.604Z" fill="#263a7f"/>
<path transform="matrix(1,0,0,-1,147.2539,126.2393)" d="M0 0C-.078-1.027-.12-2.098-.12-3.229V-9.048C-.12-11.213-.066-12.407 .045-12.627 .148-12.846 .542-12.96 1.212-12.96H1.979V-13.604C.773-13.557-.251-13.531-1.086-13.531-1.929-13.531-2.946-13.557-4.129-13.604V-12.96H-3.277C-2.827-12.96-2.533-12.901-2.393-12.779-2.261-12.664-2.173-12.429-2.141-12.081-2.069-11.281-2.036-10.255-2.036-8.994V-3.164C-2.036-2.015-2.062-.963-2.107 0H-3.145C-4.822 0-5.748-.04-5.917-.117-6.092-.196-6.203-.507-6.257-1.031L-6.394-2.403H-7.045L-7.021-1.185C-7.021-.7-7.059 .01-7.141 .93-3.467 .882-1.306 .854-.657 .854L4.992 .93C4.859-.224 4.786-1.333 4.764-2.403H4.12L4.017-1.064C3.976-.601 3.921-.324 3.848-.24 3.77-.155 3.603-.105 3.344-.081 2.595-.029 1.743 0 .794 0Z" fill="#263a7f"/>
<path transform="matrix(1,0,0,-1,159.4736,121.2393)" d="M0 0C.311 0 .566-.105 .78-.322 .996-.543 1.104-.808 1.104-1.109 1.104-1.423 .992-1.687 .772-1.907 .559-2.128 .298-2.233 0-2.233-.306-2.233-.57-2.128-.784-1.907-1.009-1.687-1.115-1.423-1.115-1.109-1.115-.808-1.009-.543-.794-.322-.578-.105-.313 0 0 0M-3.137-17.96H-2.496C-1.863-17.96-1.482-17.809-1.352-17.494-1.228-17.193-1.156-15.728-1.156-13.098V-9.637C-1.156-6.912-1.224-5.417-1.327-5.135-1.437-4.855-1.761-4.711-2.31-4.711H-3.137V-4.07C-2-4.118-.884-4.146 .219-4.146 1.141-4.146 1.976-4.118 2.728-4.07V-4.711H1.934C1.451-4.711 1.145-4.775 1.024-4.891 .896-5.007 .825-5.302 .805-5.767 .772-6.494 .756-7.796 .756-9.655V-13.18C.756-15.829 .814-17.284 .926-17.557 1.041-17.824 1.418-17.96 2.05-17.96H2.728V-18.604C1.885-18.557 .976-18.531-.016-18.531-1.17-18.531-2.207-18.557-3.137-18.604Z" fill="#263a7f"/>
<path transform="matrix(1,0,0,-1,181.3584,127.5137)" d="M0 0-3.037-6.316C-4.173-8.693-5.106-10.759-5.839-12.534H-6.243C-6.5-11.925-7.214-10.369-8.412-7.86L-12.069-.286V-8.184C-12.069-10.018-11.996-11.063-11.848-11.311-11.698-11.561-11.244-11.686-10.483-11.686H-10.1V-12.329C-11.045-12.282-11.823-12.257-12.414-12.257-12.843-12.257-13.694-12.282-14.98-12.329V-11.686H-14.322C-13.872-11.686-13.566-11.621-13.418-11.491-13.272-11.359-13.178-11.125-13.141-10.786-13.054-9.837-13.013-8.811-13.013-7.704V-1.922C-13.013-.525-13.041 .396-13.104 .843-13.129 1.073-13.227 1.247-13.405 1.371-13.574 1.499-13.923 1.563-14.435 1.563H-14.98V2.204C-13.797 2.156-13.049 2.128-12.744 2.128-12.355 2.128-11.81 2.156-11.088 2.204-10.265 .371-9.314-1.649-8.236-3.854L-5.545-9.385-3.065-4.265C-2.193-2.472-1.198-.316-.082 2.204 .766 2.156 1.372 2.128 1.715 2.128 2.112 2.128 2.844 2.156 3.894 2.204V1.563H3.224C2.617 1.563 2.253 1.454 2.124 1.247 1.987 1.034 1.918 .293 1.918-.996V-8.456C1.918-10.117 1.987-11.071 2.13-11.319 2.269-11.563 2.662-11.686 3.307-11.686H3.894V-12.329C2.942-12.282 2.038-12.257 1.175-12.257 .22-12.257-.771-12.282-1.818-12.329V-11.686H-1.145C-.603-11.686-.285-11.571-.169-11.336-.058-11.096 0-10.088 0-8.303Z" fill="#263a7f"/>
<path transform="matrix(1,0,0,-1,12.9009,161.2041)" d="M0 0V-2.54C0-3.543 .054-4.131 .166-4.296 .264-4.465 .545-4.552 .987-4.552H1.513V-5.014C.578-4.981-.166-4.966-.728-4.966-1.286-4.966-2.009-4.981-2.901-5.014V-4.552H-2.31C-1.889-4.552-1.628-4.469-1.533-4.308-1.438-4.146-1.389-3.552-1.389-2.528V3.031C-1.389 4.027-1.438 4.605-1.542 4.771-1.657 4.933-1.93 5.016-2.368 5.016H-2.901V5.479C-2.079 5.444-1.347 5.424-.695 5.424L3.549 5.504C3.991 5.504 4.409 5.484 4.802 5.44 4.64 4.916 4.562 4.173 4.541 3.209H4.066C4.042 3.718 3.975 4.173 3.901 4.581 3.223 4.755 2.541 4.846 1.851 4.846 1.252 4.846 .665 4.815 .087 4.75 .029 4.11 0 3.527 0 3.006V.663C.297 .647 .586 .639 .872 .639 1.607 .639 2.252 .656 2.806 .698 2.996 .709 3.12 .752 3.19 .82 3.256 .887 3.306 1.08 3.356 1.387L3.426 1.951H3.901C3.852 1.054 3.834 .478 3.834 .222L3.844-1.522H3.356V-.952C3.356-.502 3.269-.225 3.104-.13 2.917-.031 2.269 .019 1.124 .019 .81 .019 .434 .015 0 0" fill="#263a7f"/>
<path transform="matrix(1,0,0,-1,33.959,162.0781)" d="M0 0H3.715L1.86 4.434ZM3.988-.599H-.272L-.777-1.784C-1.103-2.578-1.268-3.06-1.268-3.236-1.268-3.347-1.239-3.43-1.177-3.479-1.12-3.526-.962-3.57-.71-3.595L0-3.678V-4.14C-.471-4.107-1.003-4.092-1.599-4.092-2.301-4.092-2.921-4.107-3.462-4.14V-3.678L-3.239-3.671C-2.892-3.661-2.673-3.624-2.574-3.563-2.471-3.504-2.363-3.35-2.251-3.109-1.9-2.401-1.545-1.639-1.181-.814L.848 3.777C1.389 4.996 1.757 5.885 1.955 6.434H2.459L6.187-2.248C6.435-2.833 6.604-3.193 6.682-3.312 6.774-3.434 6.869-3.517 6.98-3.571 7.088-3.624 7.328-3.654 7.704-3.678V-4.14C7.063-4.107 6.456-4.092 5.877-4.092 5.335-4.092 4.613-4.107 3.715-4.14V-3.678L4.447-3.635C4.708-3.611 4.86-3.587 4.91-3.549 4.989-3.496 5.017-3.43 5.017-3.345 5.017-3.257 4.951-3.024 4.798-2.652Z" fill="#263a7f"/>
<path transform="matrix(1,0,0,-1,58.688,160.41211)" d="M0 0 5.029-4.679 5.488-5.116C5.58-5.207 5.678-5.271 5.777-5.301 5.872-5.332 6.021-5.344 6.245-5.344V-5.806C5.843-5.773 5.488-5.758 5.187-5.758 4.864-5.758 4.517-5.773 4.137-5.806L-.947-.983C-1.116-.823-1.223-.74-1.261-.74-1.364-.74-1.417-.839-1.417-1.027V-3.273C-1.417-4.377-1.396-4.976-1.347-5.079-1.273-5.253-1.008-5.344-.55-5.344H.008V-5.806C-.797-5.773-1.508-5.758-2.128-5.758-2.782-5.758-3.476-5.773-4.227-5.806V-5.344H-3.624C-3.231-5.344-2.996-5.271-2.917-5.126-2.843-4.981-2.802-4.356-2.802-3.249V1.685C-2.802 3.037-2.843 3.797-2.917 3.969-2.996 4.137-3.231 4.224-3.624 4.224H-4.227V4.687C-3.327 4.652-2.67 4.632-2.269 4.632-1.976 4.632-1.215 4.652 .008 4.687V4.224L-.574 4.2C-.914 4.186-1.124 4.141-1.215 4.066-1.306 3.985-1.364 3.835-1.38 3.611-1.404 3.381-1.417 2.731-1.417 1.657V-.331H-1.314C-.909-.007-.566 .297-.273 .566 .021 .843 .5 1.316 1.157 2.002L3.252 4.165V4.687C3.79 4.652 4.24 4.632 4.596 4.632 4.963 4.632 5.372 4.652 5.819 4.687V4.224H5.422C5.066 4.224 4.764 4.157 4.521 4.019 4.273 3.884 3.706 3.405 2.818 2.595Z" fill="#263a7f"/>
<path transform="matrix(1,0,0,-1,84.8872,153.3369)" d="M0 0C.223 0 .409-.077 .57-.234 .724-.389 .806-.584 .806-.807 .806-1.03 .724-1.22 .57-1.377 .409-1.538 .223-1.612 0-1.612-.218-1.612-.413-1.538-.574-1.377-.73-1.22-.814-1.03-.814-.807-.814-.584-.73-.389-.574-.234-.421-.077-.227 0 0 0M-3.198 0C-2.975 0-2.79-.077-2.632-.234-2.471-.389-2.4-.584-2.4-.807-2.4-1.03-2.471-1.22-2.632-1.377-2.79-1.538-2.975-1.612-3.198-1.612-3.43-1.612-3.624-1.538-3.776-1.377-3.938-1.22-4.012-1.03-4.012-.807-4.012-.584-3.938-.389-3.776-.234-3.624-.077-3.43 0-3.198 0M-7.508-2.852V-2.389C-6.5-2.423-5.769-2.443-5.314-2.443-4.831-2.443-4.125-2.423-3.19-2.389V-2.852H-3.723C-4.186-2.852-4.467-2.938-4.562-3.117-4.648-3.296-4.698-4.101-4.698-5.521V-8.414C-4.698-9.473-4.637-10.208-4.525-10.619-4.409-11.034-4.111-11.385-3.632-11.671-3.145-11.951-2.503-12.091-1.699-12.091-.864-12.091-.169-11.944 .405-11.639 .798-11.425 1.087-11.101 1.265-10.652 1.447-10.208 1.538-9.36 1.538-8.119V-5.34C1.538-4.053 1.484-3.315 1.364-3.131 1.252-2.942 .935-2.852 .409-2.852H.025V-2.389C1.055-2.423 1.695-2.443 1.976-2.443 2.422-2.443 2.976-2.423 3.645-2.389V-2.852H3.137C2.753-2.852 2.497-2.957 2.38-3.168 2.277-3.373 2.215-4.11 2.215-5.37V-8.131C2.215-9.397 2.158-10.249 2.029-10.689 1.905-11.129 1.678-11.526 1.344-11.884 1.013-12.237 .57-12.514 .013-12.72-.533-12.931-1.186-13.03-1.93-13.03-2.707-13.03-3.38-12.939-3.962-12.758-4.542-12.571-4.976-12.345-5.269-12.072-5.562-11.801-5.772-11.473-5.905-11.08-6.033-10.689-6.095-10.022-6.095-9.083L-6.087-7.684V-5.437C-6.087-4.053-6.128-3.271-6.207-3.106-6.289-2.938-6.545-2.852-6.984-2.852Z" fill="#263a7f"/>
<path transform="matrix(1,0,0,-1,104.1943,165.5)" d="M0 0C.483-.026 .95-.037 1.409-.037 2.335-.037 3.058-.01 3.574 .042 3.946 .082 4.314 .149 4.711 .251L5.153 1.988H5.628C5.505 1.059 5.413 .19 5.339-.619 4.9-.694 4.297-.727 3.529-.727L.017-.67C-.45-.67-1.186-.694-2.187-.747V-.361C-1.798-.186-1.562 0-1.492 .195-1.422 .389-1.385 1.17-1.385 2.534V6.592C-1.385 8.06-1.422 8.885-1.492 9.057-1.562 9.225-1.765 9.312-2.091 9.312H-2.896V9.774C-1.724 9.74-.946 9.72-.566 9.72-.059 9.72 .64 9.74 1.513 9.774V9.312H.6C.339 9.312 .178 9.232 .104 9.084 .033 8.939 0 8.311 0 7.218V2.518L.025 .441Z" fill="#263a7f"/>
<path transform="matrix(1,0,0,-1,127.6416,156.39551)" d="M0 0C-.058-.739-.087-1.518-.087-2.332V-6.536C-.087-8.096-.05-8.96 .029-9.12 .115-9.281 .393-9.36 .872-9.36H1.429V-9.822C.558-9.79-.186-9.774-.789-9.774-1.4-9.774-2.132-9.79-2.987-9.822V-9.36H-2.368C-2.041-9.36-1.826-9.317-1.732-9.231-1.637-9.145-1.575-8.976-1.541-8.726-1.496-8.153-1.472-7.404-1.472-6.497V-2.287C-1.472-1.459-1.491-.698-1.524 0H-2.273C-3.488 0-4.153-.031-4.276-.083-4.396-.143-4.483-.363-4.518-.749L-4.624-1.735H-5.087L-5.066-.855C-5.066-.5-5.099 .007-5.166 .67-2.509 .636-.942 .615-.476 .615L3.6 .67C3.508-.162 3.451-.962 3.438-1.735H2.967L2.905-.77C2.873-.434 2.83-.237 2.772-.178 2.719-.115 2.6-.075 2.413-.059 1.872-.021 1.26 0 .57 0Z" fill="#263a7f"/>
<path transform="matrix(1,0,0,-1,146.9199,161.2041)" d="M0 0V-1.812L.004-2.853C.004-3.502 .017-3.981 .028-4.278 .743-4.333 1.52-4.364 2.338-4.364 2.893-4.364 3.347-4.334 3.727-4.287 3.972-4.254 4.224-4.194 4.491-4.094 4.615-3.659 4.743-3.122 4.871-2.473H5.354C5.227-3.552 5.157-4.271 5.157-4.63L5.173-4.966C4.611-5.011 4.058-5.039 3.508-5.039L2.351-5.014C1.073-4.981 .131-4.966-.468-4.966-1.043-4.966-1.807-4.981-2.762-5.014V-4.552H-2.534C-2.104-4.552-1.831-4.511-1.728-4.423-1.612-4.343-1.534-4.146-1.51-3.832-1.464-3.526-1.447-2.845-1.447-1.786V2.263C-1.447 2.924-1.464 3.467-1.501 3.892-1.525 4.317-1.562 4.568-1.6 4.646-1.642 4.728-1.687 4.794-1.76 4.838-1.827 4.878-2.038 4.92-2.394 4.957L-2.959 5.016V5.479H-2.161L-1.385 5.453C-.943 5.432-.613 5.424-.39 5.424L2.445 5.47 3.789 5.479C4.248 5.484 4.706 5.467 5.173 5.424 4.987 4.846 4.884 4.081 4.863 3.146H4.36C4.36 3.688 4.342 4.143 4.281 4.499 3.702 4.713 2.991 4.82 2.145 4.82 1.466 4.82 .76 4.794 .028 4.733 .032 4.271 .028 3.813 .017 3.35L0 2.216V.722C.482 .685 .916 .668 1.289 .668 2.463 .668 3.124 .709 3.277 .792 3.43 .874 3.508 1.123 3.508 1.55V2.026H4.008C3.976 1.288 3.959 .692 3.959 .249 3.959-.215 3.976-.771 4.008-1.402H3.508V-.973C3.508-.502 3.413-.215 3.23-.109 3.049 0 2.396 .052 1.28 .052 .867 .052 .442 .033 0 0" fill="#263a7f"/>
<path transform="matrix(1,0,0,-1,171.957,156.2187)" d="M0 0C-.14-.512-.21-1.189-.218-2.036H-.731V-1.45C-.731-1.063-.784-.801-.88-.665-.982-.528-1.255-.38-1.693-.225-2.132-.069-2.583 .007-3.069 .007-3.851 .007-4.471-.191-4.921-.593-5.371-.991-5.599-1.5-5.599-2.124-5.599-2.514-5.508-2.851-5.317-3.136-5.131-3.413-4.888-3.619-4.574-3.747-4.26-3.869-3.599-3.979-2.587-4.078-1.574-4.173-.888-4.306-.533-4.471-.173-4.632 .108-4.888 .328-5.249 .538-5.609 .637-6.037 .637-6.526 .637-7.512 .232-8.363-.599-9.079-1.426-9.793-2.523-10.148-3.904-10.148-4.371-10.148-4.85-10.104-5.33-10.008-5.805-9.91-6.289-9.771-6.776-9.578-6.685-8.989-6.648-8.233-6.652-7.31H-6.153V-7.677C-6.153-8.156-6.128-8.45-6.073-8.562-6.024-8.675-5.908-8.797-5.727-8.924-5.463-9.116-5.137-9.264-4.768-9.363-4.388-9.465-3.992-9.512-3.553-9.512-2.623-9.512-1.908-9.297-1.399-8.857-.896-8.422-.64-7.863-.64-7.192-.64-6.797-.728-6.462-.9-6.194-1.069-5.921-1.313-5.715-1.624-5.582-1.929-5.45-2.507-5.347-3.339-5.282-4.446-5.193-5.21-5.062-5.604-4.884-6.003-4.702-6.317-4.425-6.54-4.045-6.769-3.664-6.884-3.193-6.884-2.625-6.884-1.665-6.538-.888-5.839-.276-5.152 .335-4.189 .642-2.968 .642-2.475 .642-1.979 .583-1.487 .481-.99 .377-.499 .214 0 0" fill="#263a7f"/>
<path transform="matrix(1,0,0,-1,187.5986,152.7842)" d="M0 0C.228 0 .409-.082 .566-.235 .724-.391 .798-.583 .798-.803 .798-1.029 .724-1.221 .562-1.378 .405-1.532 .22-1.615 0-1.615-.218-1.615-.409-1.532-.57-1.378-.723-1.221-.797-1.029-.797-.803-.797-.583-.727-.391-.57-.235-.417-.082-.222 0 0 0M-2.261-12.972H-1.794C-1.342-12.972-1.062-12.864-.976-12.639-.88-12.419-.839-11.36-.839-9.463V-6.961C-.839-4.991-.88-3.907-.959-3.711-1.033-3.509-1.269-3.404-1.666-3.404H-2.261V-2.941C-1.442-2.976-.636-2.996 .161-2.996 .831-2.996 1.43-2.976 1.972-2.941V-3.404H1.397C1.049-3.404 .831-3.446 .739-3.532 .653-3.618 .599-3.824 .592-4.163 .562-4.69 .55-5.628 .55-6.976V-9.517C.55-11.435 .592-12.487 .67-12.683 .758-12.877 1.028-12.972 1.484-12.972H1.972V-13.434C1.367-13.401 .702-13.386-.008-13.386-.839-13.386-1.591-13.401-2.261-13.434Z" fill="#263a7f"/>
<path transform="matrix(1,0,0,-1,89.2354,144.0889)" d="M0 0H1.401V-7.165H.689V-.699H-.434Z" fill="#263a7f"/>
<path transform="matrix(1,0,0,-1,96.6113,147.6182)" d="M0 0C.417 0 .777 .146 1.07 .438 1.359 .735 1.504 1.085 1.504 1.5 1.504 1.917 1.359 2.276 1.066 2.569 .772 2.866 .414 3.009-.004 3.009-.421 3.009-.781 2.866-1.066 2.569-1.364 2.276-1.505 1.917-1.505 1.5-1.505 1.085-1.364 .735-1.066 .438-.781 .146-.417 0 0 0M-.785-3.818-1.372-3.438 .566-.503C.305-.587 .062-.629-.166-.629-.731-.629-1.219-.427-1.616-.013-2.017 .401-2.215 .905-2.215 1.5-2.215 1.915-2.115 2.289-1.926 2.618-1.736 2.953-1.463 3.215-1.104 3.415-.757 3.611-.38 3.713 .021 3.713 .421 3.713 .789 3.611 1.12 3.423 1.458 3.235 1.724 2.965 1.921 2.618 2.107 2.276 2.198 1.909 2.198 1.516 2.198 1.224 2.145 .917 2.025 .586 1.905 .264 1.69-.12 1.385-.575Z" fill="#263a7f"/>
<path transform="matrix(1,0,0,-1,105.0039,144.0889)" d="M0 0V-.681H-2.545L-2.9-2.633C-2.586-2.543-2.311-2.497-2.062-2.497-1.405-2.497-.868-2.717-.446-3.158-.021-3.592 .19-4.146 .19-4.826 .19-5.303 .082-5.732-.141-6.129-.355-6.521-.648-6.824-1.021-7.034-1.389-7.242-1.822-7.348-2.313-7.348-2.893-7.348-3.385-7.17-3.78-6.811-4.178-6.458-4.418-5.996-4.496-5.433H-3.761C-3.706-5.708-3.62-5.935-3.483-6.104-3.351-6.278-3.174-6.409-2.959-6.52-2.735-6.625-2.508-6.677-2.269-6.677-1.793-6.677-1.389-6.501-1.05-6.141-.711-5.785-.545-5.344-.545-4.804-.545-4.323-.698-3.93-1.004-3.625-1.31-3.325-1.719-3.177-2.231-3.177-2.645-3.177-3.161-3.306-3.761-3.557L-3.095 0Z" fill="#263a7f"/>
<path transform="matrix(1,0,0,-1,108.9883,147.6182)" d="M0 0C.421 0 .776 .146 1.073 .438 1.363 .735 1.508 1.085 1.508 1.5 1.508 1.917 1.363 2.276 1.07 2.569 .772 2.866 .417 3.009 0 3.009-.413 3.009-.773 2.866-1.066 2.569-1.36 2.276-1.505 1.917-1.505 1.5-1.505 1.085-1.36 .735-1.066 .438-.773 .146-.413 0 0 0M-.781-3.818-1.372-3.438 .566-.503C.306-.587 .062-.629-.166-.629-.731-.629-1.22-.427-1.616-.013-2.009 .401-2.211 .905-2.211 1.5-2.211 1.915-2.116 2.289-1.918 2.618-1.736 2.953-1.459 3.215-1.104 3.415-.757 3.611-.381 3.713 .024 3.713 .421 3.713 .793 3.611 1.123 3.423 1.462 3.235 1.727 2.965 1.917 2.618 2.115 2.276 2.211 1.909 2.211 1.516 2.211 1.224 2.145 .917 2.028 .586 1.913 .264 1.697-.12 1.393-.575Z" fill="#263a7f"/>
<path transform="matrix(1,0,0,-1,158.4277,37.0757)" d="M0 0 .641 .037 .744 .14 2.312 .167V-1.071L1.955-1.158C2.171-1.133 2.385-1.098 2.592-1.061L2.554-1.052V.169L4.34 .198 4.286 .028 4.745 .252 4.24 .442 4.34 .256 2.554 .235V.864C2.604 .995 2.766 1.079 2.91 1.167 3.055 1.261 3.194 1.36 3.319 1.484 3.559 1.727 3.584 2.041 3.376 2.334 3.529 2.407 3.505 2.51 3.456 2.624 3.38 2.768 3.352 2.9 3.559 2.971 3.584 2.983 3.6 3 3.612 3.017 3.554 3.095 3.492 3.165 3.447 3.244 3.385 3.355 3.116 3.479 2.971 3.433 2.835 3.386 2.811 3.285 2.888 3.169 2.894 3.161 2.888 3.15 2.881 3.141 2.798 2.922 2.725 2.706 2.637 2.493 2.604 2.409 2.542 2.334 2.492 2.256 2.447 2.326 2.447 2.381 2.447 2.436 2.423 2.677 2.323 2.882 2.091 3.017 1.741 3.222 1.228 3.075 1.145 2.706 1.111 2.531 .992 2.371 1.062 2.157 1.128 1.936 1.03 1.68 1.006 1.437 1.025 1.426 1.046 1.409 1.062 1.4 1.128 1.489 1.203 1.579 1.272 1.669 1.28 1.661 1.299 1.649 1.311 1.643 1.28 1.582 1.265 1.521 1.228 1.44 1.28 1.471 1.317 1.491 1.385 1.529 1.348 1.465 1.331 1.429 1.307 1.379 1.364 1.4 1.426 1.437 1.435 1.429 1.554 1.304 1.69 1.4 1.806 1.417 2.063 1.457 2.215 1.388 2.26 1.156 2.28 1.05 2.289 .945 2.303 .841 2.303 .817 2.303 .81 2.312 .808V.231L.761 .21 .649 .331 0 .342 .132 .177Z" fill="#263a7f"/>
<path transform="matrix(1,0,0,-1,94.3467,121.7129)" d="M0 0H.612C1.339 0 1.848 .04 2.132 .137 2.529 .264 2.843 .501 3.075 .835 3.301 1.172 3.418 1.584 3.418 2.069 3.418 2.583 3.29 3.021 3.042 3.379 2.797 3.742 2.455 3.988 2.012 4.129 1.678 4.224 1.128 4.277 .372 4.277H0ZM-.512-.503V4.797H.586C1.384 4.797 1.954 4.732 2.318 4.604 2.826 4.425 3.227 4.112 3.516 3.667 3.811 3.224 3.951 2.697 3.951 2.083 3.951 1.549 3.835 1.083 3.607 .679 3.376 .275 3.079-.024 2.715-.214 2.351-.408 1.839-.503 1.174-.503Z" fill="#263a7f"/>
<path transform="matrix(1,0,0,-1,99.814,116.916)" d="M0 0H3.038V-.52H.529V-2.181H3.016V-2.694H.529V-4.777H3.016V-5.3H0Z" fill="#263a7f"/>
<path transform="matrix(1,0,0,-1,106.7559,115.6748)" d="M0 0C.116 0 .224-.045 .299-.122 .381-.202 .422-.306 .422-.419 .422-.531 .381-.63 .299-.711 .224-.794 .116-.834 0-.834-.111-.834-.211-.794-.293-.711-.371-.63-.412-.531-.412-.419-.412-.306-.371-.202-.293-.122-.211-.045-.111 0 0 0M-1.467 0C-1.355 0-1.252-.045-1.173-.122-1.091-.202-1.049-.306-1.049-.419-1.049-.531-1.091-.63-1.173-.711-1.252-.794-1.355-.834-1.467-.834-1.578-.834-1.682-.794-1.765-.711-1.843-.63-1.884-.531-1.884-.419-1.884-.306-1.843-.202-1.765-.122-1.682-.045-1.578 0-1.467 0M-2.487-1.241H-1.954V-4.442C-1.954-4.816-1.95-5.056-1.933-5.149-1.904-5.359-1.847-5.533-1.752-5.674-1.652-5.814-1.508-5.933-1.306-6.027-1.106-6.12-.908-6.17-.702-6.17-.528-6.17-.363-6.129-.202-6.058-.045-5.979 .092-5.88 .199-5.748 .314-5.616 .389-5.455 .435-5.27 .476-5.133 .493-4.86 .493-4.442V-1.241H1.029V-4.442C1.029-4.913 .972-5.295 .885-5.585 .794-5.88 .612-6.129 .331-6.35 .046-6.562-.284-6.672-.677-6.672-1.106-6.672-1.471-6.57-1.776-6.364-2.082-6.163-2.285-5.893-2.384-5.559-2.45-5.351-2.487-4.979-2.487-4.442Z" fill="#263a7f"/>
</g>
</g>
</svg>
